<?xml version="1.0" encoding="UTF-8" standalone="no"?>
<!-- Generator: Adobe Illustrator 16.0.3, SVG Export Plug-In . SVG Version: 6.00 Build 0)  -->

<svg
   xmlns:dc="http://purl.org/dc/elements/1.1/"
   xmlns:cc="http://creativecommons.org/ns#"
   xmlns:rdf="http://www.w3.org/1999/02/22-rdf-syntax-ns#"
   xmlns:svg="http://www.w3.org/2000/svg"
   xmlns="http://www.w3.org/2000/svg"
   xmlns:sodipodi="http://sodipodi.sourceforge.net/DTD/sodipodi-0.dtd"
   xmlns:inkscape="http://www.inkscape.org/namespaces/inkscape"
   version="1.0"
   id="Ebene_1"
   x="0px"
   y="0px"
   width="21.775px"
   height="20.762px"
   viewBox="0 0 21.775 20.762"
   enable-background="new 0 0 21.775 20.762"
   xml:space="preserve"
   inkscape:version="0.48.4 r9939"
   sodipodi:docname="star_hollow_2_spacing.svg"><metadata
     id="metadata3185"><rdf:RDF><cc:Work
         rdf:about=""><dc:format>image/svg+xml</dc:format><dc:type
           rdf:resource="http://purl.org/dc/dcmitype/StillImage" /><dc:title></dc:title></cc:Work></rdf:RDF></metadata><defs
     id="defs3183" /><sodipodi:namedview
     pagecolor="#ffffff"
     bordercolor="#666666"
     borderopacity="1"
     objecttolerance="10"
     gridtolerance="10"
     guidetolerance="10"
     inkscape:pageopacity="0"
     inkscape:pageshadow="2"
     inkscape:window-width="640"
     inkscape:window-height="480"
     id="namedview3181"
     showgrid="false"
     inkscape:zoom="11.366921"
     inkscape:cx="10.8875"
     inkscape:cy="10.381"
     inkscape:window-x="49"
     inkscape:window-y="24"
     inkscape:window-maximized="0"
     inkscape:current-layer="Ebene_1" /><path
     fill="#393A3B"
     d="M14.152,11.931L17.161,9c0.397-0.388,0.308-0.758-0.148-0.9c-0.008-0.003-0.012-0.011-0.02-0.014  c-0.068-0.03-0.174-0.07-0.328-0.092l-4.053-0.589c-0.279-0.04-0.589-0.184-0.86-0.379c-0.142-0.104-0.272-0.221-0.386-0.345  c-0.105-0.117-0.194-0.241-0.255-0.365L9.298,2.64C9.278,2.6,9.254,2.57,9.232,2.533L9.213,2.495  c-0.009-0.018-0.021-0.023-0.03-0.04C9.171,2.44,9.16,2.423,9.148,2.409C9.019,2.201,8.868,2.076,8.71,2.076  c-0.15,0-0.294,0.119-0.419,0.309C8.281,2.396,8.273,2.41,8.264,2.421C8.247,2.45,8.225,2.462,8.209,2.495L8.183,2.547  C8.163,2.58,8.142,2.6,8.123,2.64L6.309,6.314C6.247,6.44,6.157,6.566,6.05,6.685C5.938,6.806,5.811,6.921,5.674,7.021  C5.4,7.22,5.088,7.365,4.807,7.406L0.753,7.994c-0.055,0.008-0.119,0.033-0.18,0.051h0c0,0,0,0-0.001,0  C0.522,8.06,0.477,8.07,0.43,8.093C-0.045,8.231-0.142,8.606,0.262,9l3.007,2.931c0.431,0.422,0.699,1.233,0.622,1.842l-0.687,4.005  c-0.004,0.025,0,0.045-0.002,0.068l-0.022,0.133c-0.077,0.446,0.094,0.708,0.404,0.708c0.118,0,0.255-0.038,0.407-0.117l3.717-1.955  c0.276-0.145,0.641-0.216,1.003-0.216c0.364,0,0.729,0.072,1.004,0.216l3.718,1.955c0.149,0.079,0.289,0.117,0.406,0.117  c0.312,0,0.481-0.262,0.405-0.708l-0.03-0.174c-0.001-0.012,0.002-0.019,0-0.03l-0.682-3.962  C13.439,13.2,13.713,12.361,14.152,11.931z M12.533,13.906l0.574,3.35l-3.003-1.581c-0.386-0.203-0.881-0.315-1.395-0.315  c-0.511,0-1.005,0.112-1.393,0.315l-3.007,1.57l0.572-3.34c0.153-0.884-0.217-2.023-0.861-2.65L1.596,8.882l3.354-0.487  c0.887-0.128,1.857-0.833,2.255-1.639L8.7,3.689l1.513,3.068c0.397,0.806,1.367,1.51,2.255,1.637l3.355,0.496l-2.432,2.367  C12.753,11.884,12.384,13.023,12.533,13.906z"
     id="path3179" /><path
     style="fill:#ffff00"
     d="M 4.4096292,16.905392 C 4.4539476,16.684697 4.8514883,14.301542 4.9431306,13.707187 4.9983693,13.348932 4.8095215,12.462432 4.5775236,11.990934 4.4323019,11.695795 3.9286124,11.115566 3.0467168,10.227508 L 1.7323471,8.9039544 3.4727435,8.6593957 C 6.3075729,8.2610483 6.6332172,8.0251381 7.899933,5.452157 L 8.7087359,3.809299 9.5234912,5.4661458 c 1.2914608,2.6262517 1.5358838,2.7951131 4.6850488,3.2366975 0.786273,0.1102533 1.429587,0.228635 1.429587,0.2630705 0,0.034435 -0.555966,0.5885638 -1.235481,1.2313962 -1.057091,1.000028 -1.279647,1.258355 -1.541372,1.789117 -0.449814,0.912195 -0.469896,1.407598 -0.135195,3.335028 0.150046,0.864066 0.272811,1.629223 0.272811,1.700347 0,0.09088 -0.268028,-0.01374 -0.90174,-0.351987 -2.069678,-1.104691 -2.3077899,-1.211911 -2.8651046,-1.290137 -0.9804178,-0.137614 -1.4555447,-9.5e-4 -3.258287,0.937217 -1.5930321,0.829029 -1.6140167,0.836925 -1.5641292,0.588497 l 0,0 z"
     id="path3187"
     inkscape:connector-curvature="0" /></svg>