<?xml version="1.0" encoding="UTF-8" standalone="no"?>
<!-- Created with Inkscape (http://www.inkscape.org/) -->

<svg
   xmlns:dc="http://purl.org/dc/elements/1.1/"
   xmlns:cc="http://creativecommons.org/ns#"
   xmlns:rdf="http://www.w3.org/1999/02/22-rdf-syntax-ns#"
   xmlns:svg="http://www.w3.org/2000/svg"
   xmlns="http://www.w3.org/2000/svg"
   xmlns:sodipodi="http://sodipodi.sourceforge.net/DTD/sodipodi-0.dtd"
   xmlns:inkscape="http://www.inkscape.org/namespaces/inkscape"
   id="svg11841"
   version="1.1"
   inkscape:version="0.91 r13725"
   width="1920"
   height="1080"
   viewBox="0 0 1920 1080"
   sodipodi:docname="gameboy_wire.svg">
  <metadata
     id="metadata11847">
    <rdf:RDF>
      <cc:Work
         rdf:about="">
        <dc:format>image/svg+xml</dc:format>
        <dc:type
           rdf:resource="http://purl.org/dc/dcmitype/StillImage" />
        <dc:title></dc:title>
      </cc:Work>
    </rdf:RDF>
  </metadata>
  <defs
     id="defs11845" />
  <sodipodi:namedview
     pagecolor="#ffffff"
     bordercolor="#666666"
     borderopacity="1"
     objecttolerance="10"
     gridtolerance="10"
     guidetolerance="10"
     inkscape:pageopacity="0"
     inkscape:pageshadow="2"
     inkscape:window-width="1920"
     inkscape:window-height="1178"
     id="namedview11843"
     showgrid="false"
     inkscape:zoom="0.55831973"
     inkscape:cx="899.54056"
     inkscape:cy="505.48151"
     inkscape:window-x="-8"
     inkscape:window-y="-8"
     inkscape:window-maximized="1"
     inkscape:current-layer="svg11841" />
  <path
     style="fill:#000000;fill-opacity:0"
     d="m 917.24652,933.2528 c -17.4089,-0.9824 -37.97729,-4.4446 -50.53697,-8.5066 l -4.53699,-1.4674 0.39522,-27.74039 c 0.21737,-15.25721 0.54738,-27.90375 0.73336,-28.10341 0.18597,-0.19967 4.97477,0.7945 10.64177,2.20927 36.79781,9.18662 76.15311,9.78978 111.70451,1.71199 l 8.4009,-1.90881 -0.6432,27.67529 c -0.3538,15.22141 -0.6467,27.99546 -0.6509,28.38676 -0.023,2.1311 -26.206,6.6153 -45.5077,7.7938 -8.8,0.5372 -16.225,0.9108 -16.5,0.83 -0.275,-0.081 -6.35,-0.477 -13.5,-0.8805 z m 77.2807,-35.20394 c 0.1544,-14.98796 0.4532,-27.74934 0.664,-28.35864 0.2109,-0.6093 1.6596,-1.36528 3.2194,-1.67997 1.5597,-0.31469 3.64768,-0.88615 4.63998,-1.26992 1.7119,-0.66212 1.7932,0.54721 1.5934,23.67997 -0.278,32.17965 -0.3147,32.47892 -4.1457,33.8144 -6.63938,2.3145 -6.28078,3.8867 -5.97108,-26.18584 z m -144.28068,21.66963 c -5.5,-1.77395 -18.55,-5.9406 -29,-9.25924 -10.45,-3.31863 -38.8,-12.32192 -63,-20.0073 -24.2,-7.68538 -47.6,-15.09748 -52,-16.47133 -4.4,-1.37386 -18.575,-5.87332 -31.5,-9.99881 -12.925,-4.12549 -27.325,-8.70453 -32,-10.17566 -4.675,-1.47112 -13.225,-4.17707 -19,-6.01322 -26.90409,-8.5541 -122.49496,-38.91268 -158,-50.17902 -21.725,-6.8937 -42.9875,-13.64087 -47.25,-14.9937 l -7.75,-2.4597 0,-28.49863 0,-28.49863 2.25,0.69012 c 1.2375,0.37956 12.825,4.04985 25.75,8.15619 49.28809,15.65909 108.86081,34.56256 117.5,37.2848 4.95,1.55977 14.175,4.48642 20.5,6.50367 6.325,2.01725 15.55,4.94042 20.5,6.49592 12.25807,3.85203 86.51258,27.45672 127.5,40.53085 18.425,5.8772 38.26973,12.17435 44.09941,13.99369 11.2407,3.50802 39.25779,12.4114 72.65059,23.08718 l 20.25,6.47398 -0.13559,16.70919 c -0.0746,9.19006 -0.41207,21.917 -0.75,28.2821 l -0.61441,11.57291 -10,-3.22536 z m 155.49996,-26.09422 0,-27.83179 13.0847,-15.47973 c 7.1966,-8.51385 13.3579,-15.9376 13.6919,-16.49722 1.8212,-3.05138 -3.6424,3.01976 -14.2766,15.86415 -6.6,7.97172 -12.363,14.52201 -12.8067,14.5562 -1.4357,0.11061 -0.078,-1.5386 44.3465,-53.84933 35.221,-41.47379 73.2756,-86.35127 77.6641,-91.58852 2.7652,-3.3 10.3859,-12.3 16.9351,-20 22.9578,-26.9923 37.2702,-43.89211 73.2139,-86.44957 8.4441,-9.99785 15.5854,-17.9455 15.8694,-17.66144 0.2841,0.28406 -5.7412,7.85024 -13.3895,16.81374 -7.6483,8.9635 -16.0213,18.8141 -18.6067,21.89022 l -4.7007,5.59295 -0.572,29.40705 -0.572,29.40705 -2.6907,2.73168 -2.6907,2.73168 0.248,-27.73168 0.248,-27.73168 2.7087,-3.5 c 4.4737,-5.78052 -0.1066,-1.40841 -6.0725,5.79658 l -5.5507,6.70342 -0.4837,21 c -0.2661,11.55 -0.5094,24.7054 -0.5408,29.23422 -0.053,7.71838 -0.2449,8.43882 -3.0557,11.5 l -2.9987,3.26578 0.5411,-28.48071 c 0.4865,-25.60449 0.7238,-28.68463 2.35,-30.5 0.9948,-1.11061 2.1333,-2.69429 2.5299,-3.51929 0.8816,-1.83401 0.6673,-1.5871 -23.158,26.67984 l -19.2344,22.82016 -0.3943,28.74658 -0.3943,28.74658 -2.7223,3.5691 c -1.4972,1.963 -2.889,3.40237 -3.0928,3.19859 -0.2038,-0.20378 -0.4104,-12.63057 -0.4592,-27.61509 l -0.089,-27.24459 3.0602,-3.48538 c 1.6831,-1.91696 3.0481,-3.80722 3.0333,-4.20059 -0.027,-0.72929 -2.4734,2.0033 -10.5501,11.78619 l -4.5418,5.5014 0.04,28.4986 0.041,28.49861 -2.4494,2.97668 -2.4493,2.97669 -0.2817,-27.81281 c -0.222,-21.92286 -0.01,-28.04186 1.0229,-28.89444 0.7175,-0.5949 1.7769,-2.01864 2.3541,-3.16388 1.251,-2.48214 -5.1004,4.55957 -18.3625,20.35806 -5.3371,6.35784 -9.3871,11.67179 -9,11.80879 0.3871,0.13701 0.5631,12.69153 0.3911,27.89895 l -0.3127,27.64985 -2.5768,3.37827 c -1.4172,1.85805 -2.7809,3.17412 -3.0304,2.92459 -0.2495,-0.24953 -0.4281,-12.70757 -0.3969,-27.68454 l 0.057,-27.23085 2.7134,-2.83225 c 1.4924,-1.55774 2.5203,-3.0254 2.2843,-3.26147 -0.2361,-0.23607 -9.9872,10.89673 -21.6692,24.73957 l -21.24,25.16879 -0.2601,28.5 -0.26,28.5 -2.4979,3.5 -2.4978,3.5 -0.5,-27.5 -0.5,-27.5 2.9316,-3.23502 c 1.6125,-1.77926 2.7221,-3.44459 2.466,-3.70074 -0.2562,-0.25614 -3.5133,3.13606 -7.2382,7.53823 l -6.7724,8.00396 0.037,28.69678 0.037,28.69679 -13.9806,16.32901 -13.9806,16.32902 0,-27.83179 z m 30.75,-16.01557 c -2.2824,-0.59644 -2.2214,-0.96176 0.75,-4.49304 2.4932,-2.963 2.5,-3.02868 2.5153,-24.14436 0.01,-11.94254 0.4379,-21.82721 0.9847,-22.67327 1.0709,-1.65707 1.4552,47.65012 0.393,50.41821 -0.6094,1.58799 -1.4,1.73996 -4.643,0.89246 z m -110.99998,-3.02692 c -4.8227,-0.73058 -2.9524,-2.28375 2.75,-2.28375 5.3137,0 7.1815,1.14077 3.9182,2.39301 -1.6147,0.61962 -1.886,0.61517 -6.6682,-0.10926 z m 9.25,-0.67676 c 0,-1.2812 1.115,-1.60699 5.5,-1.60699 3.025,0 5.5,0.45 5.5,1 0,0.55 -1.7632,1 -3.9182,1 -2.155,0 -4.63,0.27314 -5.5,0.60699 -1.038,0.39831 -1.5818,0.0545 -1.5818,-1 z m -24,-1.18857 c 0,-1.25762 0.7682,-1.47019 3.75,-1.03777 2.0625,0.2991 4.3125,0.56081 5,0.58158 0.6875,0.0208 1.25,0.48777 1.25,1.03777 0,0.55 -2.25,1 -5,1 -3.8924,0 -5,-0.35035 -5,-1.58158 z m 36,0.67542 c 0,-1.085 9.8435,-2.58374 10.7851,-1.64211 1.1947,1.19471 -2.2179,2.5174 -6.5351,2.53296 -2.3375,0.008 -4.25,-0.39246 -4.25,-0.89085 z m 88.27938,-19.89018 c 0.329,-18.21208 0.6263,-21.53789 2.0527,-22.96428 1.5572,-1.55727 1.6679,-0.30072 1.6679,18.93555 0,19.34626 -0.1253,20.74756 -2.0527,22.96429 l -2.0526,2.36078 0.3847,-21.29634 z M 899.99654,872.5923 c -2.6483,-0.51009 -3.0401,-2.29924 -0.5,-2.28326 3.71757,0.0234 9.24998,1.29125 9.24998,2.11983 0,0.87717 -4.59842,0.96305 -8.74998,0.16343 z m 58.74998,-0.16927 c 0,-0.94563 4.7869,-2.125 8.625,-2.125 3.7443,0 2.7686,1.67325 -1.375,2.35815 -5.1916,0.85812 -7.25,0.79192 -7.25,-0.23315 z m -64.49998,-0.62205 c -0.55,-0.18654 -2.74611,-0.6324 -4.88025,-0.99081 -5.58196,-0.93742 -3.10009,-2.67678 2.68753,-1.8835 2.98246,0.40879 4.69272,1.14035 4.69272,2.00728 0,1.34552 -0.53851,1.53228 -2.5,0.86703 z m 19.49998,-1.10989 c -21.96752,-2.60654 -29.86606,-3.99686 -43.24998,-7.61293 l -7.75,-2.0939 0,-13.34312 c 0,-7.33871 0.39342,-13.34311 0.87427,-13.34311 0.48085,0 2.84335,0.69521 5.25,1.54492 36.23821,12.79449 85.72721,13.34538 125.03201,1.3918 5.311,-1.6152 9.92348,-2.93672 10.24998,-2.93672 0.3266,0 0.5937,5.86114 0.5937,13.02475 l 0,13.02475 -2.75,1.05035 c -4.99898,1.90934 -22.58308,5.854 -33.25078,7.45916 -9.984,1.50231 -47.306,2.74687 -54.9992,1.83405 z m 57.416,-0.14239 c 0.4121,-0.41212 2.9621,-1.24769 5.6667,-1.8568 3.8278,-0.86211 4.9173,-0.83456 4.9173,0.12432 0,0.6775 -1.4062,1.51306 -3.125,1.85681 -4.2742,0.85485 -8.3699,0.78658 -7.459,-0.12433 z m -91.66598,-1.55597 c -6.69285,-1.45115 -6.4558,-3.7442 0.25,-2.4183 3.08048,0.60908 5,1.51361 5,2.35611 0,0.75212 -0.1125,1.30553 -0.25,1.22979 -0.1375,-0.0757 -2.3875,-0.60115 -5,-1.1676 z m 103.24998,-0.57599 c 0,-0.4847 1.9993,-1.3847 4.4428,-2 5.3916,-1.35762 5.5572,-1.36255 5.5572,-0.16571 0,0.52414 -1.6875,1.42163 -3.75,1.99442 -4.5974,1.27676 -6.25,1.32205 -6.25,0.17129 z m -114.41983,-2.45511 c -5.94227,-1.79291 -5.89899,-3.79282 0.0493,-2.27541 2.60483,0.6645 4.91633,1.749 5.13666,2.40999 0.47626,1.42878 -0.0497,1.41513 -5.18591,-0.13458 z m 125.41983,-0.18835 c 0,-0.58644 3.8019,-2.13643 7.54408,-3.07568 3.6052,-0.90485 3.0198,1.2082 -0.6933,2.5026 -3.32588,1.15942 -6.85078,1.45428 -6.85078,0.57308 z M 852.74654,861.2275 c -12.39421,-4.02307 -96.55098,-30.83305 -117,-37.27291 -9.625,-3.03114 -27.4,-8.65887 -39.5,-12.50609 -12.1,-3.84721 -41.35,-13.14178 -65,-20.6546 -23.65,-7.51282 -52.225,-16.59404 -63.5,-20.1805 -11.275,-3.58646 -25.9,-8.22269 -32.5,-10.30273 -6.6,-2.08004 -25.725,-8.14723 -42.5,-13.48264 -16.775,-5.33541 -41.05418,-13.03902 -53.95374,-17.11912 -21.00251,-6.64305 -28.1112,-9.41088 -24.17018,-9.41088 1.23421,0 23.93641,7.06349 77.12392,23.9961 35.53074,11.31145 83.76251,26.63863 94.5,30.03038 4.95,1.5636 18.9,5.99149 31,9.83976 42.49405,13.51475 47.76779,15.13376 49.29636,15.13376 1.82413,0 28.65354,8.68021 31.05032,10.04581 0.90932,0.51811 13.12832,4.5738 27.15332,9.01265 14.025,4.43886 29.55,9.35311 34.5,10.92057 4.95,1.56746 29.925,9.45598 55.5,17.53005 25.575,8.07407 46.87671,15.03677 47.33713,15.47266 2.00609,1.8992 -1.44114,1.5107 -9.33713,-1.05227 z m 199.20616,-0.97682 c -2.0401,-0.81877 -2.1507,-1.15701 -1,-3.05848 0.7116,-1.17584 1.801,-3.01463 2.421,-4.08619 0.7202,-1.24481 1.1897,-9.4152 1.3004,-22.62813 0.1085,-12.96117 0.5664,-21.0531 1.2266,-21.67985 0.7371,-0.69965 0.8814,4.55649 0.4804,17.5 -0.3152,10.175 -0.587,22.2125 -0.6039,26.75 -0.017,4.5375 -0.3682,8.22148 -0.7807,8.18661 -0.4125,-0.0349 -1.7822,-0.47764 -3.0438,-0.98396 z m -207.20616,-4.92144 c -7.975,-2.63485 -29.575,-9.55778 -48,-15.38429 -18.425,-5.82652 -48.125,-15.24574 -66,-20.9316 l -32.5,-10.33793 -0.0968,-8.94214 c -0.10195,-9.41628 -1.16143,-12.74708 -5.55251,-17.45613 -4.40068,-4.71934 -9.84603,-7.36374 -15.16344,-7.36374 -4.31395,0 -5.32492,0.4147 -7.82081,3.20809 -2.67793,2.9971 -2.86644,3.76605 -2.86644,11.69231 0,4.66632 -0.27775,8.48422 -0.61722,8.48422 -0.33946,0 -9.22696,-2.74043 -19.75,-6.08985 -10.52303,-3.34942 -23.18278,-7.35675 -28.13278,-8.90519 -8.44187,-2.64074 -24.10016,-7.61327 -73.5,-23.34106 -36.04215,-11.475 -65.24094,-20.74972 -74.5,-23.66423 -4.95,-1.55813 -18.45,-5.8503 -30,-9.53815 -11.55,-3.68786 -22.8,-7.26688 -25,-7.95339 l -4,-1.24819 0.34144,-22.87997 c 0.18779,-12.58398 0.43101,-22.97319 0.54049,-23.08712 0.10947,-0.11394 9.40582,2.7358 20.65856,6.33274 11.25273,3.59694 49.48451,15.75157 84.95951,27.01029 35.475,11.25873 73.5,23.33616 84.5,26.83874 11,3.50258 28.775,9.12776 39.5,12.5004 10.725,3.37264 20.49401,6.5399 21.70891,7.03836 1.98978,0.81639 2.23778,1.72562 2.5,9.16567 l 0.29109,8.25938 14.92582,4.77163 c 8.2092,2.62439 15.10209,4.59536 15.31754,4.37992 0.21544,-0.21544 0.64401,-3.69882 0.95238,-7.74085 0.30837,-4.04202 0.65376,-7.4624 0.76752,-7.60085 0.11376,-0.13844 13.44357,3.96019 29.62179,9.10808 l 29.41495,9.35979 52.25,26.14381 52.25,26.14381 0,13.49812 c 0,10.17933 -0.30734,13.47621 -1.25,13.40903 -0.6875,-0.049 -7.775,-2.24486 -15.75,-4.87971 z m 212.72366,-23.13489 0.38,-28.39632 2.9481,-2.98077 2.9482,-2.98077 0,27.74546 0,27.74545 -3.3281,3.63164 -3.3282,3.63164 0.38,-28.39633 z m -51.3347,13.26267 0.3962,-13.01009 9.9627,-17.82445 c 5.4794,-9.80345 12.534,-22.41914 15.6767,-28.03487 3.1428,-5.61573 8.7206,-13.71573 12.395,-18 3.6745,-4.28427 12.9649,-15.21458 20.6453,-24.28958 7.6805,-9.075 22.5576,-26.625 33.0604,-39 10.5028,-12.375 40.6449,-47.925 66.9824,-79 26.3376,-31.075 56.4819,-66.625 66.9874,-79 34.0625,-40.12406 85.76,-101.11239 99.1764,-117 7.199,-8.525 18.4436,-21.8 24.9881,-29.5 6.5445,-7.7 23.311,-27.5 37.2589,-44 13.948,-16.5 26.1973,-30.8875 27.2207,-31.97222 1.8177,-1.92653 1.8608,-1.44969 1.8608,20.58071 l 0,22.55294 -17.2444,20.39482 c -16.422,19.42213 -17.2689,20.25349 -17.7577,17.43149 -0.8197,-4.73238 -3.586,-4.35145 -8.4989,1.17035 -2.3694,2.66305 -14.9916,17.44191 -28.0494,32.84191 -24.4828,28.87446 -28.4496,34.77197 -28.4496,42.29684 0,3.85702 -0.9436,5.25952 -12.7195,18.90448 -2.4689,2.86073 -5.1026,6.01073 -5.8529,7 -1.2456,1.64251 -1.3668,1.52712 -1.3958,-1.32888 -0.041,-4.03266 -2.3624,-6.17288 -4.6427,-4.28038 -4.0895,3.39394 -28.155,32.53519 -30.32,36.71495 -1.3439,2.59448 -2.6378,7.14622 -2.8934,10.17926 -0.4466,5.29741 -0.8277,5.91261 -11.0691,17.87117 -5.8336,6.8117 -12.1816,14.29272 -14.1066,16.62449 -1.925,2.33178 -6.7013,8.01475 -10.614,12.62883 -3.9127,4.61408 -19.9017,23.46424 -35.5312,41.88924 -67.7734,79.89577 -131.3665,154.91074 -157.6793,186 -15.5943,18.425 -28.7649,33.65054 -29.268,33.83454 -0.536,0.19601 -0.7507,-5.0529 -0.5185,-12.67555 z m 43.6428,-9.1947 c 0.024,-15.43076 0.3586,-20.89473 1.3602,-22.21429 0.7307,-0.9625 1.6831,-1.75 2.1166,-1.75 0.4335,0 0.4775,9.3375 0.098,20.75 -0.537,16.14269 -1.0141,21.07513 -2.1484,22.21429 -1.2777,1.28308 -1.4542,-1.06811 -1.4263,-19 z m -131.11458,7.9891 c -14.04285,-1.01622 -24.02021,-2.58378 -35.7412,-5.61534 -5.32179,-1.37644 -10.68324,-2.74205 -11.91433,-3.03469 -1.23109,-0.29263 -2.01994,-0.88544 -1.753,-1.31735 0.26693,-0.43191 30.07419,-0.82849 66.23833,-0.88129 41.9975,-0.0613 65.18138,0.24776 64.1707,0.85547 -2.8764,1.72968 -25.2296,6.89509 -36.4177,8.41548 -14.2432,1.93555 -31.298,2.53909 -44.5828,1.57772 z m 147.52388,-1.3728 c -1.9078,-1.39504 -1.9025,-1.46052 0.3089,-3.81445 2.1878,-2.32881 2.2504,-2.98786 2.2653,-23.83059 0.01,-12.11189 0.437,-22.08799 0.9847,-22.93555 0.6393,-0.98917 0.9746,7.60971 0.9847,25.25 0.016,28.34262 -0.035,28.62747 -4.5436,25.33059 z m 5.6172,-25.78617 c 0.083,-14.65549 -0.081,-27.02148 -0.364,-27.47998 -0.2833,-0.45849 1.2311,-2.85431 3.3654,-5.32403 l 3.8806,-4.49041 -0.012,28 -0.012,28 -3.5048,3.97038 -3.5049,3.97039 0.1513,-26.64635 z m -6.8368,0.88114 c 0.3365,-13.46813 0.9188,-21.21587 1.6493,-21.9464 0.8389,-0.83888 1.1292,4.16083 1.1292,19.4484 0,17.89935 -0.2147,20.75571 -1.6494,21.94639 -1.5261,1.26662 -1.6105,-0.18566 -1.1291,-19.44839 z m -254.20811,-11.11496 -50.48664,-25.32157 4.98664,-0.48638 c 2.74266,-0.26751 22.53665,-0.53773 43.98665,-0.6005 33.02778,-0.0966 39.29725,0.11267 40.94113,1.36687 2.73202,2.08439 7.83275,1.83998 10.83174,-0.51902 3.55885,-2.79939 14.1422,-2.79401 19.52168,0.01 4.17043,2.17375 9.2115,1.89263 11.30547,-0.63044 1.62136,-1.95363 15.71156,-1.83661 18.34106,0.15231 2.4481,1.85164 8.4974,1.89958 11.0864,0.0879 1.0849,-0.75918 5.2263,-1.58388 9.2032,-1.83267 5.8483,-0.36587 7.7601,-0.10325 10,1.37374 3.5879,2.36587 6.9761,2.31541 11.0435,-0.16448 4.4777,-2.73009 14.3448,-2.73964 19.6811,-0.019 4.0861,2.08322 7.7523,1.87219 10.6235,-0.61152 2.2171,-1.91794 15.7691,-1.79535 18.36228,0.16611 2.4571,1.85845 6.4326,1.88647 8.4802,0.0598 1.0795,-0.96307 5.6103,-1.62757 14.3287,-2.10144 7.0125,-0.38116 12.75,-0.45703 12.75,-0.1686 0,0.28844 -2.9837,5.84658 -6.6304,12.35145 -3.6466,6.50486 -10.4448,18.68952 -15.107,27.07702 l -8.4767,15.24982 -72.14288,-0.0589 -72.14298,-0.0589 -50.48665,-25.32156 z m 271.23661,19.35506 c -2.7486,-1.03984 -2.7746,-1.60361 -0.25,-5.41566 1.8249,-2.75558 1.9874,-4.72649 1.9934,-24.19098 0,-14.90002 0.3484,-21.40224 1.158,-21.9026 0.8636,-0.53373 0.9897,5.86632 0.5046,25.60302 -0.3557,14.47305 -0.7613,26.41427 -0.9014,26.53604 -0.14,0.12177 -1.2671,-0.16165 -2.5046,-0.62982 z m -2.25,-25.02453 c 0,-17.09428 0.26,-20.83206 1.5616,-22.45 1.4239,-1.77 1.5196,-0.0576 1.0854,19.42351 -0.2988,13.4011 -0.8808,21.76921 -1.5616,22.45 -0.7805,0.78048 -1.0854,-4.67568 -1.0854,-19.42351 z m 16.75,6.41954 c -2.2305,-0.58288 -2.2035,-1.4644 0.1358,-4.43833 1.6591,-2.1092 1.9549,-4.86012 2.4609,-22.88486 0.7593,-27.05091 0.6221,-24.94762 1.4667,-22.48748 0.3776,1.1 0.5585,12.9125 0.402,26.25 -0.2147,18.2881 -0.5835,24.22148 -1.5,24.134 -0.6685,-0.0638 -2.0029,-0.3218 -2.9654,-0.57333 z m -414.24996,-4.86109 -13,-4.11648 -0.29271,-8.30664 c -0.25798,-7.32138 -0.0411,-8.57446 1.82852,-10.56457 4.54564,-4.83863 14.33483,-3.11468 20.39339,3.59143 4.29389,4.75281 4.74458,6.40222 4.3673,15.98306 l -0.2965,7.52967 -13,-4.11647 z m 8.5396,-5.69958 c 1.6094,-1.71009 1.98819,-3.06428 1.57856,-5.6434 -1.31799,-8.29836 -13.37608,-14.34654 -18.12984,-9.09369 -7.28467,8.04946 9.10839,22.64567 16.55128,14.73709 z m -10.36149,-0.23415 c -3.88946,-2.02866 -6.61157,-5.53479 -6.61157,-8.51585 0,-3.33503 3.19298,-7.0009 6.09375,-6.99626 3.70406,0.006 8.82674,3.72096 10.43352,7.56655 1.37107,3.28142 1.32741,3.73161 -0.62827,6.4781 -2.34692,3.29594 -4.98313,3.71248 -9.28743,1.46746 z m 421.72455,-17.44318 0.4974,-28.42732 2.6012,-2.57268 2.6013,-2.57267 -0.2046,27.90581 -0.2046,27.9058 -2.8941,3.0942 -2.8941,3.09419 0.4975,-28.42733 z m -8.0103,4.49858 c 0.6042,-19.17696 1.2526,-23.56871 3.48,-23.57225 0.3452,-5.5e-4 0.4977,9.17045 0.339,20.37999 -0.2725,19.23467 -0.4065,20.48617 -2.3836,22.251 l -2.0949,1.87001 0.6595,-20.92875 z m 18.6076,6.77057 c -0.825,-0.27515 -2.1017,-0.69055 -2.8372,-0.92311 -0.9698,-0.30668 -0.6264,-1.26746 1.25,-3.4975 l 2.5872,-3.07466 0.015,-21.17328 c 0.01,-11.94254 0.4379,-21.82721 0.9847,-22.67327 0.6393,-0.98917 0.9746,7.60971 0.9847,25.25 0.01,14.7125 -0.3222,26.71447 -0.7347,26.67105 -0.4125,-0.0434 -1.425,-0.30407 -2.25,-0.57923 z m -3.9778,-23.93683 c -0.021,-19.84034 0.097,-21.20267 1.9778,-22.90499 1.9939,-1.80441 1.9999,-1.74728 1.9778,18.59501 -0.02,18.71194 -0.1845,20.61242 -1.9778,22.90499 l -1.9555,2.5 -0.022,-21.09501 z m -257.77216,14.56385 c -1.2375,-0.49742 -2.2873,-1.03139 -2.33288,-1.18662 -0.0456,-0.15522 -0.63737,-10.40722 -1.31506,-22.78222 -0.86992,-15.88504 -0.91906,-22.716 -0.16712,-23.23469 1.52497,-1.05194 8.79167,-0.90752 10.5591,0.20984 1.19004,0.75234 1.73523,5.48006 2.67938,23.23469 1.07661,20.24556 1.03669,22.40482 -0.43517,23.54016 -1.86241,1.43659 -5.72469,1.53063 -8.98825,0.21884 z m 31.12798,-0.4059 c -3.73602,-1.626 -3.96384,-2.96884 -4.96919,-29.29032 l -0.65799,-17.22738 2.694,-1.02425 c 2.70866,-1.02983 7.10117,-0.49156 9.16516,1.12312 0.659,0.51554 1.38271,6.65538 1.78129,15.11211 0.36923,7.83408 0.93518,17.8938 1.25768,22.35494 l 0.58636,8.11117 -3.26687,1.13883 c -1.79677,0.62636 -3.31222,1.12123 -3.36764,1.0997 -0.0554,-0.0215 -1.50569,-0.65059 -3.2228,-1.39792 z m 28.872,-0.5941 c -1.8757,-0.75394 -2.2627,-1.69994 -2.3265,-5.68662 -0.042,-2.63022 -0.2063,-5.45722 -0.365,-6.28222 -0.1587,-0.825 -0.6135,-9.01908 -1.0106,-18.20907 l -0.7222,-16.70907 2.7244,-0.68378 c 1.4984,-0.37607 4.3501,-0.28199 6.3371,0.20907 l 3.6128,0.89285 0.6271,9 c 0.3449,4.95 0.9495,15.14911 1.3436,22.66469 0.6862,13.08367 0.6304,13.71084 -1.3113,14.75 -2.402,1.28553 -5.7946,1.30615 -8.9094,0.0542 z m 30.0069,-0.62482 c -2.017,-1.69293 -2.2607,-3.11399 -2.9744,-17.34402 -0.4276,-8.525 -0.7786,-18.65 -0.78,-22.5 l 0,-7 5,-0.25995 c 2.75,-0.14298 5.5405,0.095 6.2012,0.52881 1.5627,1.02627 4.0186,44.9114 2.593,46.337 -2.021,2.02091 -7.7514,2.15688 -10.0373,0.23816 z m 29.5604,-0.59402 c -1.2672,-1.01221 -1.7775,-5.42723 -2.6824,-23.2087 -0.7748,-15.22568 -0.7981,-22.27799 -0.076,-23 1.295,-1.29448 9.6854,-1.19677 11.0104,0.12822 0.5365,0.53653 1.5034,10.98687 2.1488,23.22297 1.3058,24.76124 1.4587,24.06321 -5.2772,24.0922 -1.9574,0.008 -4.2631,-0.54719 -5.1239,-1.23469 z m 29.99238,-0.5 c -0.93958,-1.0959 -1.96488,-6.04834 -2.74328,-13.25 -0.6836,-6.325 -1.4422,-13.075 -1.6859,-15 -1.9202,-15.17255 -2.0488,-17.54106 -0.9935,-18.29337 1.3655,-0.97333 9.48398,-0.25986 10.58618,0.93033 0.4395,0.47467 1.2944,10.96515 1.8998,23.31218 0.8685,17.71517 0.8398,22.61479 -0.1362,23.23469 -2.105,1.33697 -5.356,0.89871 -6.9271,-0.93383 z M 737.74654,773.7674 c -9.075,-2.99629 -21.7827,-7.09983 -28.23932,-9.11898 -9.47352,-2.96261 -11.52475,-3.92975 -10.62756,-5.01079 0.63697,-0.7675 3.09472,-1.3396 5.75493,-1.3396 5.73165,0 11.29072,-2.82637 12.5639,-6.38779 1.93397,-5.40984 -0.87778,-6.74023 -40.55245,-19.18751 -23.84963,-7.48243 -37.95102,-11.41931 -40.8995,-11.41848 -5.50815,0.002 -10.6956,2.93277 -11.60542,6.55778 -1.20003,4.78131 2.31695,6.78218 23.85542,13.57174 10.8625,3.42418 19.75,6.60856 19.75,7.0764 0,2.20775 -3.99041,1.55084 -18.65071,-3.07034 -18.02805,-5.68277 -93.62314,-29.66374 -124.34929,-39.44724 -67.019,-21.33949 -103.9863,-33.06689 -107.5,-34.103 -2.2,-0.64873 -4,-1.68233 -4,-2.29689 0,-1.0557 4.29716,-6.23979 39.53505,-47.69505 7.99427,-9.40479 18.34427,-21.60902 23,-27.12051 4.65572,-5.51149 40.86495,-48.22348 80.46495,-94.91554 39.6,-46.69205 74.7,-88.10399 78,-92.02652 3.3,-3.92253 21.975,-25.97287 41.5,-49.00075 19.525,-23.02788 40.9,-48.24632 47.5,-56.04098 6.6,-7.79466 23.025,-27.14575 36.5,-43.00242 13.475,-15.85668 28.11493,-33.1419 32.53317,-38.41161 4.41825,-5.26971 17.24325,-20.41538 28.5,-33.65705 11.25676,-13.24167 24.47698,-28.82693 29.37828,-34.6339 8.2094,-9.72637 9.11536,-10.49563 11.5,-9.76483 5.33335,1.63448 26.88592,8.47406 107.08853,33.98389 59.87068,19.04291 71.81208,22.82393 89.99998,28.49674 4.125,1.28659 18.975,6.01472 33,10.50695 14.025,4.49224 29.55,9.43928 34.5,10.99344 4.95,1.55416 14.175,4.48354 20.5,6.50974 17.4661,5.59522 33.7758,10.76748 52,16.49059 9.075,2.84991 29.7453,9.42413 45.9341,14.60938 16.1887,5.18524 29.8581,9.28634 30.3765,9.11355 0.5184,-0.17279 -11.6019,-4.29661 -26.934,-9.16405 -15.3321,-4.86743 -35.5266,-11.29395 -44.8766,-14.28115 -9.35,-2.98719 -34.55,-10.98968 -56,-17.7833 -21.45,-6.79362 -54.075,-17.14161 -72.5,-22.99552 -18.425,-5.85392 -51.95,-16.49871 -74.5,-23.65509 -22.54998,-7.15638 -47.07498,-14.96208 -54.49998,-17.34599 -23.2993,-7.48061 -73.30953,-23.29448 -77.74998,-24.58556 -2.3375,-0.67964 -4.23569,-1.50198 -4.2182,-1.82742 0.0593,-1.103 2.68346,-4.0918 3.57844,-4.07566 0.48937,0.009 9.87151,2.92957 20.8492,6.49056 10.97768,3.56099 20.23974,6.14127 20.58234,5.73395 10.5627,-12.55737 18.4548,-21.92752 19.0338,-22.5985 0.8484,-0.98327 7.9244,1.09488 7.9244,2.32734 0,0.44786 -1.9189,3.00046 -4.2642,5.67245 -8.8607,10.095 -13.7358,16.21246 -13.7358,17.23625 0,0.58251 10.4625,4.41926 23.25,8.52612 26.2879,8.44267 82.11918,26.30418 134.74998,43.10918 72.5618,23.16895 144.1745,46.05722 184.5,58.96844 14.3,4.5785 35.45,11.31773 47,14.97608 11.55,3.65834 22.125,7.05135 23.5,7.54003 2.7108,0.96341 51.1558,16.42943 54.6029,17.43189 1.7493,0.50872 3.8966,-1.48395 12.7697,-11.85024 l 10.6669,-12.4618 3.2302,1.07758 c 1.7767,0.59267 3.5904,1.39876 4.0305,1.79131 0.4401,0.39255 -3.4974,5.7488 -8.75,11.90278 -5.2526,6.15398 -9.5502,11.75061 -9.5502,12.43695 0,0.72638 5.6741,3.03131 13.5772,5.51529 11.4854,3.60995 13.3923,4.49009 12.3775,5.71285 -0.6598,0.79499 -1.9041,1.44544 -2.7652,1.44544 -0.861,0 -11.4934,-3.18033 -23.6275,-7.0674 -85.7476,-27.46861 -119.7378,-38.09013 -120.251,-37.57694 -0.2795,0.27955 1.6736,1.1762 4.3404,1.99255 7.9426,2.43141 21.0868,6.59593 77.8486,24.66504 29.7,9.45445 55.575,17.63602 57.5,18.18126 1.925,0.54524 3.879,1.35108 4.3423,1.79075 0.4633,0.43967 -10.3522,14.01035 -24.0345,30.15707 -13.6822,16.14672 -42.4609,50.10609 -63.9526,75.46526 -21.4917,25.35918 -42.4615,50.10918 -46.5995,55 -4.138,4.89083 -15.5633,18.37298 -25.3897,29.96035 -9.8263,11.58737 -37.441,44.16162 -61.366,72.38722 -23.925,28.2256 -56.775,66.9576 -73,86.07112 -16.225,19.11352 -43,50.75073 -59.5,70.3049 l -30,35.55304 -13.1459,0.0579 -13.1459,0.0579 -0.5821,-7.75 c -0.3201,-4.2625 -0.8277,-12.925 -1.1279,-19.25 -1.5668,-33.00942 -1.2672,-32 -9.49818,-32 -8.8957,0 -8.6939,-1.18656 -5.1146,30.07934 1.7264,15.08136 3.1335,27.98316 3.1268,28.67066 -0.014,1.38044 -12.5309,1.8493 -13.3488,0.5 -0.2501,-0.4125 -1.0331,-13.09396 -1.74,-28.18102 -1.1309,-24.13365 -1.5041,-27.64968 -3.1044,-29.25 -2.4168,-2.4168 -9.8482,-2.45732 -12.6514,-0.069 -2.0412,1.73913 -2.0452,1.90215 -0.6401,26.25 0.7776,13.475 1.427,26.1875 1.4432,28.25 l 0.029,3.75 -7,0 -7,0 -0.023,-3.75 c -0.017,-2.85854 -2.7551,-53.07984 -2.9394,-53.92245 -0.021,-0.0948 -1.5847,-0.68299 -3.4755,-1.307 -3.8498,-1.27054 -9.9284,-0.48924 -11.5685,1.48695 -1.0164,1.2247 -0.392,20.36745 1.5899,48.7425 l 0.6112,8.75 -7.0974,0 c -6.4757,0 -7.0975,-0.17861 -7.0975,-2.03865 0,-1.95715 -1.3607,-26.63891 -2.5062,-45.46135 -0.6304,-10.35783 -1.4499,-11.5 -8.2507,-11.5 -8.20898,0 -8.60717,0.6496 -7.8816,12.85771 0.8933,15.02804 2.0618,38.99551 2.1034,43.14229 l 0.035,3.5 -6.64209,0.29323 -6.64209,0.29323 -0.58587,-7.79323 c -0.3222,-4.28628 -0.81438,-12.29323 -1.09372,-17.79323 -1.56715,-30.85664 -1.57336,-30.91133 -3.71726,-32.75 -2.34259,-2.00907 -7.55767,-2.2818 -11.2719,-0.58948 -2.21509,1.00926 -2.54705,1.78687 -2.54705,5.96636 0,4.24057 1.25583,28.89189 2.37515,46.62312 l 0.39454,6.25 -6.7713,0 -6.7713,0 -0.57306,-4.25 c -0.31518,-2.3375 -0.87317,-11.225 -1.23998,-19.75 -0.36682,-8.525 -0.94753,-19.5326 -1.29049,-24.46133 l -0.62356,-8.96133 -3.78321,-1.43701 c -3.10677,-1.18007 -4.51571,-1.21754 -7.87989,-0.20961 l -4.09668,1.2274 0.87786,18.67094 c 0.48282,10.26902 0.87877,23.39594 0.87989,29.17094 l 0.002,10.5 -46,0.20858 -46,0.20859 -16.5,-5.4478 z m 66.69672,-78.35573 c 0.96143,-1.4375 1.64798,-2.95114 1.52566,-3.36364 -0.12231,-0.4125 0.42252,-0.75 1.21074,-0.75 0.94464,0 1.40404,1.02255 1.34782,3 -0.0929,3.26733 -0.70375,3.67222 -2.64019,1.75 -1.00966,-1.00225 -1.12719,-0.90315 -0.59301,0.5 0.37825,0.99353 1.70066,1.75 3.05925,1.75 2.46373,0 3.19908,-1.38379 1.34445,-2.53001 -1.50371,-0.92934 0.82244,-3.49399 2.5632,-2.826 0.75263,0.28881 1.50723,1.49956 1.67689,2.69056 0.19402,1.36205 1.14324,2.28401 2.55847,2.485 1.83248,0.26025 2.25,-0.15726 2.25,-2.25 0,-1.93714 0.51274,-2.56955 2.08333,-2.56955 1.22244,0 1.91099,-0.51654 1.66628,-1.25 -0.30115,-0.90257 -3.58752,-1.25 -11.82383,-1.25 l -11.40677,0 -0.51794,2.99201 -0.51794,2.992 -2.20784,-3.742 c -2.72342,-4.61585 -4.43961,-4.70419 -7.7244,-0.39762 -3.33769,4.37594 -3.22108,5.02605 0.78493,4.37597 1.8347,-0.29774 3.89947,-0.19298 4.58837,0.23279 0.68891,0.42577 3.00125,0.77412 5.13852,0.77412 3.07754,0 4.24963,-0.54373 5.63401,-2.61363 z m -4.69672,-1.03031 c 0,-2.13218 0.48321,-3.08333 1.56642,-3.08333 1.11013,0 1.47425,0.77861 1.25,2.67288 -0.46088,3.89313 -2.81642,4.23642 -2.81642,0.41045 z m 16,1.49846 c 0,-0.78002 -0.27314,-2.13002 -0.60699,-3 -0.42454,-1.10633 -0.0257,-1.58179 1.32681,-1.58179 1.57984,0 1.8532,0.54911 1.49349,3 -0.43985,2.9969 -2.21331,4.26434 -2.21331,1.58179 z m -27.9682,-0.33179 c 0.0175,-0.4125 0.6296,-1.5375 1.36025,-2.5 1.92916,-2.54136 5.09469,-2.1719 6.426,0.75 0.91148,2.00049 0.86695,2.5 -0.22286,2.5 -0.74906,0 -1.59728,-0.9 -1.88494,-2 -0.28766,-1.1 -0.96266,-2 -1.5,-2 -0.53734,0 -1.21234,0.9 -1.5,2 -0.48671,1.86119 -2.74914,2.91703 -2.67845,1.25 z m -15.20501,0.87821 c 0.72974,-0.46264 1.17974,-1.55124 1,-2.41911 -0.17973,-0.86787 0.0107,-1.60746 0.42321,-1.64352 3.09572,-0.27068 3.75,0.15406 3.75,2.43442 0,1.82532 0.5346,2.5 1.98095,2.5 1.27902,0 2.20328,-0.88585 2.60841,-2.5 0.3451,-1.375 1.25367,-2.5 2.01905,-2.5 0.76537,0 1.39159,-0.65797 1.39159,-1.46215 0,-1.19363 -1.93889,-1.45315 -10.55777,-1.41316 -10.36069,0.0481 -10.57575,0.0963 -11.52149,2.58378 -0.66295,1.74369 -0.60671,2.96499 0.18021,3.91317 1.26002,1.51822 6.6377,1.83042 8.72584,0.50657 z m -2.60804,-1.19593 c 0.15469,-0.69038 -0.81039,-1.53248 -2.14461,-1.87134 -2.44718,-0.62152 -4.16658,-3.06094 -2.15747,-3.06094 0.59583,0 1.08333,0.41425 1.08333,0.92054 0,0.5063 1.37384,1.22229 3.05297,1.59109 1.67913,0.3688 2.88851,1.16393 2.6875,1.76696 -0.52003,1.5601 -2.86077,2.16687 -2.52172,0.65369 z m 8.78125,-1.35896 c 0,-1.47023 -0.68974,-2.60692 -1.75,-2.88399 -0.9625,-0.25153 0.275,-0.49584 2.75,-0.54292 3.50933,-0.0667 4.11474,0.1388 2.75,0.93369 -0.9625,0.5606 -1.75,1.89692 -1.75,2.96959 0,1.07267 -0.45,1.95031 -1,1.95031 -0.55,0 -1,-1.092 -1,-2.42668 z m 48.59692,-14.65375 c 0.81102,-0.67309 1.40308,-3.00193 1.40308,-5.51896 0,-7.29949 0.0762,-7.28241 -37.21755,-8.34717 -17.89808,-0.511 -33.60857,-0.66861 -34.9122,-0.35024 -7.69323,1.87882 -8.1777,11.94155 -0.70206,14.58202 0.91751,0.32408 15.54251,0.90215 32.5,1.2846 16.9575,0.38246 30.97818,0.81958 31.15708,0.97139 0.59286,0.50306 6.3444,-1.43714 7.77165,-2.62164 z m -52.09692,0.36693 c -16.942,-0.30637 -19.5,-0.68215 -19.5,-2.86457 0,-0.84698 0.36658,-1.3134 0.81462,-1.0365 0.44805,0.27691 15.63555,0.81314 33.75,1.19163 18.11446,0.3785 33.09294,0.82356 33.28552,0.98903 0.19257,0.16546 0.0535,0.78079 -0.30902,1.36738 -0.64079,1.03682 -7.45814,1.08691 -48.04112,0.35303 z m -2,-4.23041 c -17.78299,-0.5817 -21.5,-1.45582 -21.5,-5.05609 0,-3.56895 3.63713,-4.3721 19,-4.19561 28.32132,0.32537 51.53848,1.34595 54.25,2.38473 3.29961,1.26408 3.77265,5.19321 0.81574,6.7757 -2.00337,1.07217 -21.54221,1.1061 -52.56574,0.0913 z m 307.49996,6.46606 c 0,-0.26281 -1.2187,-2.96281 -2.7083,-6 -3.5375,-7.21274 -6.4233,-7.53219 -11.4919,-1.27215 -5.8012,7.16466 -5.8165,7.06437 0.9596,6.27793 3.9677,-0.46051 6.2457,-0.32875 6.6879,0.38685 0.644,1.04199 6.5527,1.58968 6.5527,0.60737 z m -5.5753,-1.64404 c -0.4566,-0.73877 -2.5403,-0.90483 -6.1016,-0.48627 -6.0219,0.70777 -6.0848,0.35974 -1.0456,-5.79368 3.1375,-3.83126 6.6397,-3.09194 9.0224,1.9046 0.9351,1.9608 1.7001,3.99983 1.7001,4.53117 0,1.33584 -2.7269,1.217 -3.5753,-0.15582 z m -1.44,-3.12811 c -0.01,-0.6875 -0.4101,-1.87329 -0.8925,-2.6351 -0.7065,-1.11555 -1.0859,-0.99518 -1.9495,0.61852 -0.5898,1.10199 -0.7882,2.28778 -0.4408,2.6351 1.0978,1.09788 3.2987,0.68321 3.2828,-0.61852 z m -115.05528,-0.7122 c 1.2833,-0.68681 1.7979,-2.13983 1.7979,-5.0766 0,-3.43636 -0.4003,-4.26657 -2.4287,-5.0378 -2.9151,-1.1083 -11.9902,-1.23147 -12.6452,-0.17162 -0.2555,0.41348 -0.6095,2.75808 -0.7865,5.21022 -0.2901,4.01789 -0.077,4.52663 2.1556,5.14854 3.7523,1.04517 9.8881,1.00769 11.9069,-0.0727 z m -9.6794,-0.78506 c -2.9113,-0.33992 -3.2484,-0.71149 -3.2347,-3.5661 0.025,-5.31106 1.0409,-6.035 7.3578,-5.24577 5.8343,0.72895 7.8538,2.10354 5.505,3.74706 -1.0657,0.74577 -1.0948,1.07929 -0.1281,1.47153 1.8787,0.76229 1.5027,3.32981 -0.5,3.41485 -0.9625,0.0409 -2.65,0.18311 -3.75,0.3161 -1.1,0.13298 -3.4625,0.071 -5.25,-0.13767 z m 6.458,-2.63006 c -0.5313,-1.59597 -3.7104,-2.02028 -5.0558,-0.67482 -0.8473,0.84723 -0.7922,1.34756 0.2169,1.97121 1.7715,1.09485 5.3187,0.14453 4.8389,-1.29639 z m -3.8955,-0.30579 c 0.7219,-0.28887 1.5844,-0.25335 1.9167,0.0789 0.3323,0.33229 -0.2584,0.56864 -1.3125,0.52522 -1.165,-0.048 -1.4019,-0.28494 -0.6042,-0.60416 z m 4.1875,-3.2495 c 0,-1.21526 -3.6888,-2.37777 -4.991,-1.57292 -1.9793,1.22324 -0.9603,2.50553 1.991,2.50553 1.65,0 3,-0.41968 3,-0.93261 z m 128.49998,-1.50047 c 13.7514,-2.45867 23.2738,-6.77503 30.5714,-13.85761 6.3486,-6.16157 8.3893,-10.74575 8.3285,-18.70931 -0.087,-11.35722 -6.5499,-19.65004 -20.5179,-26.32614 -14.5545,-6.95637 -18.054,-7.34719 -73.882,-8.25088 -21.725,-0.35166 -40.84268,-0.79624 -42.48378,-0.98795 -1.641,-0.19171 -13.566,-0.40505 -26.5,-0.47409 -21.5545,-0.11505 -24.1001,0.0562 -30.5162,2.05258 -12.0626,3.75336 -23.155,11.55102 -26.99499,18.97682 -2.66745,5.15828 -3.08356,13.20448 -0.96974,18.75132 3.68032,9.65744 16.34553,18.74871 31.46473,22.58586 6.11,1.55068 30.6677,2.86976 117.49998,6.31137 8.8,0.34879 16.1875,0.79772 16.4167,0.99763 0.9456,0.82496 10.1023,0.26795 17.5833,-1.0696 z m -27.5,-1.62948 c -7.975,-0.41964 -37.675,-1.72465 -65.99998,-2.90002 -44.2671,-1.83691 -52.5533,-2.42318 -59,-4.17437 -13.6105,-3.69722 -24.4035,-11.10999 -28.67452,-19.69413 -2.62149,-5.26883 -2.33969,-14.7918 0.57739,-19.51173 5.05063,-8.17207 15.37143,-14.84827 28.09713,-18.17512 5.8441,-1.5278 10.6373,-1.62566 47.5,-0.96973 22.54998,0.40125 42.79998,0.87096 44.99998,1.0438 2.2,0.17284 13.225,0.40442 24.5,0.51462 26.0634,0.25475 36.8762,1.20793 45.0069,3.9675 18.0987,6.14267 28.2015,16.45314 28.386,28.96945 0.2134,14.48436 -14.7518,26.24292 -38.8929,30.55921 -4.4,0.78669 -8.9,1.36356 -10,1.28193 -1.1,-0.0816 -8.525,-0.49177 -16.5,-0.91141 z m 33.8537,-8.22342 c 9.2001,-3.23495 14.4358,-6.82507 18.4634,-12.66033 6.3697,-9.22841 3.2676,-20.15227 -7.8108,-27.5057 -18.166,-12.05793 -48.1939,-11.47829 -64.2415,1.24008 -10.5465,8.35857 -11.7737,18.80792 -3.3348,28.39505 8.1475,9.25609 22.1668,14.01996 39.57,13.44626 7.5668,-0.24944 11.7893,-0.9588 17.3537,-2.91536 z m -34.426,-1.16235 c -6.4051,-1.79278 -15.3128,-5.88324 -17.9496,-8.24256 -14.6064,-13.06929 -6.3503,-29.97446 17.5219,-35.87778 15.0886,-3.73123 37.4365,0.24663 46.5219,8.28073 7.5998,6.72046 9.3678,16.63286 4.1797,23.43473 -6.5867,8.6356 -17.7691,13.05468 -34.2016,13.51589 -7.3333,0.20583 -12.6908,-0.16452 -16.0723,-1.11101 z m -86.98768,-3.22157 c 28.7014,-7.16728 33.20258,-31.32492 8.0737,-43.33023 -18.9345,-9.0459 -43.5994,-7.07365 -57.6747,4.61176 -5.2935,4.39474 -7.8279,9.00268 -8.0485,14.63357 -0.7292,18.60917 29.3143,31.16076 57.6495,24.0849 z m -29.0967,-1.81337 c -12.0081,-2.76724 -21.1823,-8.75048 -24.4505,-15.94599 -2.3898,-5.2618 -2.3567,-7.92359 0.1614,-12.96121 5.5711,-11.14556 25.3314,-18.15819 43.974,-15.60568 13.7977,1.88918 23.0764,6.54106 28.1678,14.12209 7.2689,10.82303 0.1652,23.26302 -16.4393,28.78865 -8.3135,2.76654 -23.0903,3.52019 -31.4134,1.60214 z m -223.51085,12.48598 c 0.3231,-0.96931 -0.36301,-1.14659 -2.65973,-0.68725 -1.7457,0.34914 -3.37371,0.16831 -3.73406,-0.41475 -0.78877,-1.27625 -0.56722,-1.47883 2.56136,-2.34199 1.96938,-0.54334 2.18163,-0.45496 1,0.41642 -1.18048,0.87053 -0.75446,1.04424 2,0.8155 2.93744,-0.24392 3.54958,0.0574 3.80847,1.87481 0.54469,3.82369 5.19153,4.17471 5.19153,0.39216 0,-1.01247 0.93482,-2.06881 2.10062,-2.37367 4.36398,-1.14121 0.64736,-2.74995 -5.96745,-2.58301 -3.68861,0.0931 -7.68555,-0.14147 -8.88209,-0.52124 -3.08374,-0.97874 -6.25108,1.01097 -6.25108,3.9269 0,1.90301 0.71132,2.62709 3.25,3.30827 3.61385,0.96968 6.91841,0.17991 7.58243,-1.81215 z m -9.16576,0.33062 c -1.15248,-1.15247 -0.72429,-4.33333 0.58333,-4.33333 0.6875,0 1.25,1.125 1.25,2.5 0,2.50201 -0.58233,3.08434 -1.83333,1.83333 z m 14.08858,-1.83333 c -0.36017,-1.88412 -0.0535,-2.5 1.24475,-2.5 1.29827,0 1.60492,0.61588 1.24475,2.5 -0.26285,1.375 -0.82298,2.5 -1.24475,2.5 -0.42177,0 -0.9819,-1.125 -1.24475,-2.5 z m -50.7502,2.4973 c 1.11627,-0.59741 2.10238,-0.63249 2.43965,-0.0868 0.31134,0.50375 7.46539,0.93139 15.89789,0.9503 l 15.33182,0.0344 -0.12382,-3.6976 c -0.12314,-3.67714 -0.14991,-3.69929 -4.83721,-4.00239 -4.5979,-0.29732 -4.71338,-0.23419 -4.71338,2.57681 0,2.63295 -0.25886,2.8436 -3,2.44129 -2.37229,-0.34818 -3,-0.93965 -3,-2.82681 0,-1.71983 -0.5587,-2.3865 -2,-2.3865 -1.45377,0 -2,0.66667 -2,2.44098 0,1.34254 -0.52024,2.76251 -1.1561,3.15549 -0.82645,0.51078 -0.97615,-0.18523 -0.525,-2.44098 l 0.6311,-3.15549 -4.725,0.006 c -4.19876,0.006 -4.91473,0.33974 -6.42849,3 -1.6115,2.83202 -3.79651,4.04183 -3.79651,2.10209 0,-0.49038 -1.125,-1.17395 -2.5,-1.51905 -1.375,-0.34511 -2.5,-1.06889 -2.5,-1.60841 0,-1.20011 1.70482,-1.30685 2.16667,-0.13566 0.18333,0.46491 1.60724,1.15762 3.16423,1.53936 2.37401,0.58204 2.77529,0.40527 2.48631,-1.09529 -0.27001,-1.40204 -1.3157,-1.78936 -4.83091,-1.78936 -4.0754,0 -4.50118,0.22897 -4.64874,2.5 -0.27293,4.20048 4.32537,6.32113 8.66749,3.9973 z m 3.99495,-2.9973 c 0,-1.65 0.45,-3 1,-3 0.55,0 1,1.35 1,3 0,1.65 -0.45,3 -1,3 -0.55,0 -1,-1.35 -1,-3 z m 11,0 c 0,-1.65 0.45,-3 1,-3 0.55,0 1,1.0875 1,2.41667 0,1.32916 0.5625,2.64364 1.25,2.92105 0.6875,0.27741 0.2375,0.53991 -1,0.58333 -1.85088,0.065 -2.25,-0.45321 -2.25,-2.92105 z m 10,0.41667 c 0,-1.62196 0.46518,-2.42846 1.25,-2.16718 1.71605,0.57132 1.81586,4.75051 0.11346,4.75051 -0.79942,0 -1.36346,-1.06868 -1.36346,-2.58333 z m 34.81703,-13.24377 c 1.91424,-1.47274 2.26192,-2.54679 2,-6.1784 -0.55135,-7.64474 -0.93813,-7.72765 -39.81703,-8.53564 -33.475,-0.69568 -33.50205,-0.69456 -36.25,1.49505 -2.15629,1.71817 -2.75,3.03419 -2.75,6.09562 0,6.73119 2.16683,7.43007 23.45252,7.56419 l 18.04748,0.11371 -18,-0.7389 c -21.25084,-0.87236 -19.5,-0.66365 -19.5,-2.32443 0,-1.05461 2.15828,-1.24863 10.25,-0.92139 5.6375,0.22798 20.78836,0.71664 33.66859,1.0859 18.38084,0.52696 23.51548,0.96333 23.86904,2.02852 0.36959,1.11348 -2.2639,1.29096 -14.66859,0.98857 -8.31547,-0.20271 -15.11904,-0.0259 -15.11904,0.39287 0,0.41879 7.3125,0.75142 16.25,0.73919 14.03442,-0.0192 16.56591,-0.26528 18.56703,-1.80486 z m -49.96241,-4.1049 c -19.40956,-0.50933 -21.86278,-0.76477 -23.75,-2.47299 -2.76721,-2.50473 -2.65658,-4.18725 0.40734,-6.1948 2.26228,-1.48231 5.76591,-1.57333 35.25,-0.91575 34.73211,0.77463 39.23804,1.39564 39.23804,5.40781 0,1.09688 -1.00013,2.69484 -2.22251,3.55103 -2.41302,1.69015 -6.38732,1.7409 -48.92287,0.6247 z m -3.23934,-71.00079 c 5.9866,-7.11304 11.47431,-12.96304 12.19491,-13 0.72061,-0.037 10.69387,2.87509 22.16281,6.47124 19.09868,5.98849 21.10486,6.43007 23.85153,5.25 2.45625,-1.0553 27.17547,-28.67768 27.17547,-30.3671 0,-0.2536 -1.09989,-2.20343 -2.4442,-4.33296 -2.35419,-3.72928 -3.03213,-4.05998 -18.40932,-8.98013 -8.78081,-2.80954 -16.34342,-5.11515 -16.80579,-5.12357 -0.46238,-0.008 -1.46165,-0.40861 -2.22059,-0.8893 -1.05846,-0.6704 0.87609,-3.56573 8.30451,-12.42893 l 9.68442,-11.55495 -1.57533,-3.04634 c -1.98052,-3.82991 -4.42569,-5.34863 -12.2837,-7.62953 -3.4375,-0.99778 -6.25,-2.14969 -6.25,-2.55979 0,-0.41011 -0.42246,-1.8568 -0.9388,-3.21487 -0.92825,-2.4415 -0.98719,-2.45246 -5.25,-0.9763 -4.18401,1.44888 -4.65884,1.38277 -16.09487,-2.24105 -9.55066,-3.02639 -12.22958,-3.53081 -14.13674,-2.66185 -1.29419,0.58967 -6.90598,6.47965 -12.47065,13.08883 -5.56466,6.60918 -10.51226,12.26062 -10.99465,12.55875 -0.48238,0.29814 -10.33966,-2.43553 -21.90505,-6.0748 -13.83452,-4.35331 -21.86475,-6.40685 -23.47404,-6.00295 -1.34886,0.33855 -5.06802,3.76157 -8.29135,7.63116 -5.69651,6.83863 -5.96318,7.01723 -10.4779,7.01723 -2.54794,0 -4.92665,0.29404 -5.28603,0.65341 -0.35938,0.35938 0.22539,2.07534 1.29947,3.81324 l 1.95288,3.15983 -2.75424,3.43676 c -1.51483,1.89022 -3.51227,4.63962 -4.43875,6.10979 -1.58252,2.51117 -1.58021,2.79338 0.0381,4.66047 1.10272,1.27224 8.38001,4.05294 20.22262,7.72718 10.175,3.15686 18.87028,6.06493 19.32284,6.46237 0.45256,0.39745 -3.03494,5.24717 -7.75,10.77716 -4.71506,5.52999 -8.57284,10.54332 -8.57284,11.14073 0,0.59741 -0.55922,1.98165 -1.24271,3.07608 -2.07165,3.31725 0.25993,5.25393 10.28768,8.54528 5.13144,1.68426 9.43119,3.48426 9.55499,4 0.1238,0.51573 0.49803,2.1752 0.83162,3.6877 0.69865,3.16769 1.78627,3.33133 8.03694,1.20917 4.32883,-1.46968 4.89612,-1.42567 12.28494,0.9531 4.2606,1.37165 9.59842,2.51503 11.86182,2.54083 4.06322,0.0463 4.25297,-0.1167 15,-12.88589 z m -26.11528,9.44374 c -2.2,-0.73013 -10.75,-3.44462 -19,-6.0322 -8.25,-2.58758 -15.5625,-5.15895 -16.25,-5.71416 -1.37372,-1.10939 -1.72313,-4.76459 -0.45546,-4.76459 0.437,0 10.4495,3.09388 22.25,6.87528 17.86596,5.72504 21.45546,7.18892 21.45546,8.75 0,2.34997 -2.69039,2.64782 -8,0.88567 z m -20.15492,-2.05408 c -0.81861,-2.13324 -0.3531,-2.29269 3.59005,-1.22974 2.60635,0.70259 3.08889,1.1451 2,1.83412 -2.21225,1.39987 -4.93387,1.10562 -5.59005,-0.60438 z m 36.69042,-0.48465 c 0.0236,-1.64252 3.06863,-5.9961 9.07323,-12.97222 11.61729,-13.49692 10.89214,-12.83414 10.88639,-9.95 -0.004,2.12747 -9.98485,15.05276 -18.0861,23.42222 -1.89567,1.95843 -1.90877,1.95494 -1.87352,-0.5 z m -30.5355,-8.32912 c -25.62583,-8.32951 -25.5,-8.28235 -25.5,-9.55736 0,-0.53737 4.92396,-6.73899 10.94213,-13.78138 6.01818,-7.0424 10.63068,-13.07317 10.25,-13.40172 -0.38067,-0.32855 -9.69213,-3.4104 -20.69213,-6.84855 -11,-3.43816 -20.59079,-6.81371 -21.31286,-7.50122 -1.46639,-1.3962 -2.08036,-0.53351 13.20387,-18.55287 4.89842,-5.775 9.75696,-10.91413 10.79675,-11.42028 2.04399,-0.99498 2.8484,-0.78403 28.60371,7.50118 8.41031,2.7055 15.83531,4.91115 16.5,4.90144 0.66469,-0.01 5.93353,-5.67633 11.70853,-12.59247 5.775,-6.91614 11.48154,-12.96028 12.6812,-13.43143 2.31771,-0.91023 5.695,-0.0729 26.3188,6.5251 6.325,2.02351 14.425,4.5846 18,5.69133 3.575,1.10672 6.91529,2.40792 7.42287,2.89155 1.50386,1.4329 -0.66436,4.7263 -10.8191,16.43358 -5.24769,6.05 -9.55532,11.31464 -9.57251,11.69921 -0.0258,0.57748 10.8957,4.22723 38.78875,12.96239 1.82601,0.57184 3.5575,1.65859 3.84776,2.41499 0.43167,1.12494 -15.62447,21.23725 -22.2179,27.83068 -2.62952,2.62952 -7.01277,1.86538 -27.94987,-4.87256 l -20,-6.43636 -1.83772,2.20083 c -19.03507,22.79614 -20.89744,24.7016 -24.0417,24.59785 -1.71632,-0.0566 -13.02058,-3.3209 -25.12058,-7.25393 z m 22.48943,-5.13037 c 2.35079,-2.83253 0.12044,-4.40962 -11.26076,-7.96251 -12.71803,-3.97021 -14.91752,-4.23252 -16.77032,-2.00003 -2.0305,2.4466 0.31471,3.96926 12.04165,7.8182 11.95423,3.92354 14.25658,4.23231 15.98943,2.14434 z m -16.23943,-4.07647 c -7.09552,-2.33477 -10.75,-4.03003 -10.75,-4.98677 0,-0.93078 0.9841,-1.4256 2.75,-1.38272 3.89185,0.0945 23.79503,7.22753 23.53109,8.43323 -0.43903,2.00551 -5.01045,1.39807 -15.53109,-2.06374 z m 22.6133,-3.71264 c 3.43763,-2.51366 0.8217,-4.47982 -10.85198,-8.15643 -12.68091,-3.99384 -14.70741,-4.24077 -16.55297,-2.017 -2.05632,2.4777 0.53269,4.16408 12.12323,7.89658 12.00112,3.86471 12.92245,4.00199 15.28172,2.27685 z m -15.8633,-4.28192 c -5.5,-1.86338 -10.1125,-3.40005 -10.25,-3.41483 -0.1375,-0.0148 -0.25,-0.70187 -0.25,-1.52687 0,-2.18557 2.08609,-1.89644 14.67801,2.03441 7.67147,2.39481 11.32199,4.00695 11.32199,5 0,2.26726 -4.37407,1.6767 -15.5,-2.09271 z m 80.36548,-7.85796 c 3.37399,-4.07895 6.13452,-7.88811 6.13452,-8.46482 0,-1.35694 -3.30966,-3.11892 -5.85852,-3.11892 -1.8005,0 -12.40474,11.31115 -13.84011,14.76273 -0.82375,1.98085 1.67192,4.23727 4.68655,4.23727 2.19269,0 3.97384,-1.48796 8.87756,-7.41626 z m -12.36607,4.41531 c -0.89041,-1.44072 9.57185,-13.91955 12.26358,-14.62733 1.24464,-0.32728 2.92104,-0.0489 3.72534,0.61859 1.24199,1.03077 0.60722,2.25311 -4.21243,8.11167 -4.50274,5.47334 -6.24101,6.89802 -8.41633,6.89802 -1.50784,0 -3.01992,-0.45043 -3.36016,-1.00095 z m -44.70115,-1.58656 c 0.4239,-2.96691 -0.97989,-3.77116 -12.95818,-7.42386 -11.43489,-3.48699 -15.84008,-3.49494 -15.84008,-0.0286 0,2.53285 0.8022,2.98272 11.98457,6.72086 11.03457,3.68874 16.35808,3.92037 16.81369,0.73159 z m -16.77784,-2.49984 c -9.98708,-3.13091 -11.66748,-4.05667 -10.57427,-5.82552 1.0822,-1.75104 3.93082,-1.3005 15.57234,2.46296 7.29376,2.35791 10.98151,4.03698 10.98151,5 0,2.2488 -5.32305,1.70335 -15.97958,-1.63744 z m 60.67034,-3.97411 c 3.19508,-3.8838 5.80924,-7.77225 5.80924,-8.64101 0,-2.23296 -2.76009,-3.70005 -5.61364,-2.98386 -2.35593,0.59131 -13.88636,13.51527 -13.88636,15.56463 0,1.40346 3.03939,3.05449 5.69076,3.09129 1.51797,0.0211 3.97481,-2.1382 8,-7.03105 z m -12.19054,4.06181 c -0.75142,-1.21581 9.29691,-13.6196 11.74978,-14.50409 2.0403,-0.73572 5.75,0.2412 5.75,1.51422 0,0.48164 -2.50318,3.82631 -5.56262,7.43261 -4.46987,5.26883 -6.12807,6.55691 -8.44099,6.55691 -1.58309,0 -3.15637,-0.44984 -3.49617,-0.99965 z m -1.13064,-9.11319 c 5.82032,-6.83586 6.7661,-9.23738 4.04863,-10.28017 -4.24053,-1.62724 -6.28915,-0.55064 -12.37579,6.50377 -3.37439,3.91091 -5.96633,7.62341 -5.75987,8.25 0.58544,1.77672 4.81923,3.53998 6.73161,2.80353 0.94875,-0.36536 4.25869,-3.64007 7.35542,-7.27713 z m -11.63951,4.86284 c -1.4781,-1.1183 -1.06384,-1.9612 3.9318,-8 4.48,-5.41548 6.14114,-6.75 8.40204,-6.75 4.54716,0 4.40208,1.73047 -0.65329,7.79242 -5.3622,6.42988 -7.29218,8.20758 -8.91062,8.20758 -0.61476,0 -1.86122,-0.5625 -2.76993,-1.25 z m -8.42194,-4.33932 c 5.778,-1.96877 9.69187,-6.36398 9.69187,-10.88381 0,-2.53694 -0.81882,-4.03862 -3.47267,-6.36873 -8.60123,-7.55198 -26.93697,-6.80929 -33.35593,1.35109 -8.29801,10.54921 10.50623,21.56803 27.13673,15.90145 z m -18.30813,-0.99639 c -5.25188,-1.88215 -9,-5.02129 -9,-7.53771 0,-0.97614 1.4625,-2.87283 3.25,-4.21488 8.03176,-6.03019 24.26343,-5.16099 30.58568,1.63785 1.93666,2.08265 2.14449,2.86898 1.21656,4.60283 -2.99617,5.5984 -17.34181,8.63353 -26.05224,5.51191 z m -8.42463,-13.40438 c 3.67882,-6.33996 16.44772,-8.92505 26.74835,-5.41527 4.03838,1.37601 9.44353,5.97144 8.33154,7.08343 -0.20501,0.20501 -2.75591,-0.86369 -5.66868,-2.37488 -8.89182,-4.61324 -20.52666,-3.64159 -28.96148,2.41865 l -2.47489,1.77816 2.02516,-3.49009 z m -8.61727,-3.61645 c 6.9946,-8.31678 7.25705,-10.60094 1.28682,-11.19968 -2.70571,-0.27134 -3.74747,0.51837 -9.14915,6.93556 -3.35267,3.98297 -6.09577,7.74327 -6.09577,8.35622 0,1.90296 2.28367,3.51444 4.98041,3.51444 1.98705,0 4.05147,-1.74913 8.97769,-7.60654 z m -12.9581,4.46786 c 0,-0.62628 2.5451,-4.24956 5.65579,-8.05174 5.03336,-6.15227 5.99631,-6.87985 8.75,-6.61132 1.70181,0.16596 3.09421,0.83078 3.09421,1.47739 0,0.64661 -2.44732,4.13411 -5.4385,7.75 -4.69926,5.68073 -5.88861,6.57435 -8.75,6.57435 -1.82132,0 -3.3115,-0.51241 -3.3115,-1.13868 z m -1.85686,-7.11132 c 8.42041,-9.76867 8.27892,-9.53652 6.85686,-11.25 -0.68469,-0.825 -2.44098,-1.5 -3.90286,-1.5 -2.077,0 -4.01742,1.61643 -8.87755,7.39526 -6.58727,7.83245 -6.9142,8.51013 -5.01959,10.40474 2.59248,2.59248 5.51997,1.24152 10.94314,-5.05 z m -10.68108,3.18861 c -0.94306,-1.5259 10.80475,-14.37254 13.50965,-14.77327 4.70623,-0.69723 4.19678,1.52545 -1.9943,8.70091 -4.38184,5.07856 -6.83272,7.13375 -8.50723,7.13375 -1.29368,0 -2.64733,-0.47763 -3.00812,-1.06139 z m -6.96206,-1.70392 c 2.7289,-2.00489 12.5,-14.24856 12.5,-15.66312 0,-1.86854 -4.25994,-3.79279 -6.49651,-2.93454 -2.13133,0.81787 -13.50349,14.18323 -13.50349,15.87024 0,2.54365 5.1841,4.42888 7.5,2.72742 z m -6.02343,-2.2726 c -0.3528,-0.57085 1.9217,-4.17085 5.05444,-8 4.60743,-5.63165 6.23624,-6.96209 8.52343,-6.96209 1.55514,0 3.11312,0.4621 3.46218,1.0269 0.54809,0.88682 -8.16514,12.13034 -11.0104,14.20779 -1.4929,1.09003 -5.29369,0.9182 -6.02965,-0.2726 z m 92.02343,-2.92544 c 0,-2.26837 -0.94987,-2.76625 -12,-6.28993 -12.76612,-4.07088 -16.5,-4.0297 -16.5,0.182 0,1.62451 1.89247,2.58291 10.75,5.44412 5.9125,1.90989 12.325,3.39482 14.25,3.29984 3.00605,-0.14831 3.5,-0.52033 3.5,-2.63603 z m -15.93774,-1.9385 c -6.01576,-2.04853 -11.09728,-4.20321 -11.29227,-4.78817 -0.82921,-2.48763 3.61231,-2.09038 14.31455,1.28027 10.05514,3.16686 13.46426,4.79339 12.2656,5.85205 -1.68301,1.48644 -5.96866,0.8293 -15.28788,-2.34415 z m 23.28613,-5.59118 c 0.19162,-0.97202 -0.25838,-2.15913 -1,-2.63802 -3.14037,-2.02785 -23.37797,-7.95285 -25.41646,-7.44122 -2.73017,0.68523 -3.94758,3.50871 -2.21867,5.14565 1.00295,0.9496 12.0486,4.67405 23.28674,7.85199 1.89816,0.53676 5.00104,-1.15635 5.34839,-2.9184 z m -17.09839,-2.3097 c -10.26827,-3.46653 -12.70334,-5.23372 -9.11111,-6.61219 1.6933,-0.64978 23.09256,5.84396 24.85275,7.54173 1.1427,1.10217 -1.10357,2.88488 -3.49164,2.77109 -0.825,-0.0393 -6.3375,-1.7046 -12.25,-3.70063 z m 22.30597,-4.04151 c 1.41753,-1.14785 2.0449,-2.45051 1.66144,-3.44978 -0.82384,-2.1469 -23.00803,-9.10084 -26.35405,-8.26104 -3.00223,0.75351 -4.11799,3.25037 -2.2501,5.03528 1.12735,1.07726 21.74798,8.35931 24.02596,8.48462 0.35156,0.0193 1.66411,-0.79475 2.91675,-1.80908 z m -15.55597,-3.94727 c -6.05,-2.03967 -10.92225,-4.15849 -10.82722,-4.70849 0.49819,-2.88337 3.49192,-2.78479 13.99524,0.46086 12.69719,3.92357 14.31085,4.85021 11.73115,6.73653 -2.38327,1.74268 -2.31251,1.7545 -14.89917,-2.4889 z m 20.5,71.76859 c -3.025,-1.00277 -11.125,-3.56571 -18,-5.69541 -10.68416,-3.30969 -12.54642,-4.19247 -12.81955,-6.07693 -0.17575,-1.21261 -0.0105,-2.20474 0.36721,-2.20474 0.37773,0 9.2046,2.7 19.61527,6 10.41068,3.3 19.13293,6 19.38279,6 0.24985,0 0.45428,0.9 0.45428,2 0,2.43609 -1.59428,2.43203 -9,-0.0229 z m 17.17784,-1.2601 c 0.20553,-1.77548 3.9425,-7.09786 10.32216,-14.70134 5.5,-6.55508 10.34607,-11.94022 10.76905,-11.96698 2.40449,-0.15214 -1.72077,6.72345 -9.55733,15.92925 -12.35944,14.51895 -11.92455,14.11403 -11.53388,10.73907 z M 610.88192,534.79203 c -9.00054,-2.92778 -16.80524,-5.76386 -17.34378,-6.3024 -0.53854,-0.53854 -0.82446,-1.64302 -0.63538,-2.45441 0.27672,-1.18748 4.04995,-0.30958 19.34378,4.50063 10.45,3.28672 19.17663,6.14191 19.3925,6.34486 0.66914,0.62906 -2.0731,3.42253 -3.26494,3.32593 -0.62016,-0.0503 -8.49164,-2.48684 -17.49218,-5.41461 z m 107.24457,-13.25931 c -0.71569,-0.46946 2.34065,-4.7783 8.46598,-11.93538 5.27231,-6.16038 9.76586,-11.02086 9.98566,-10.80105 1.17904,1.17904 -2.50289,7.32613 -8.93932,14.9245 -7.54962,8.9125 -7.67611,9.01638 -9.51232,7.81193 z M 593.81691,509.42951 c -1.26334,-2.36056 -0.48958,-3.13148 3.14298,-3.13148 l 2.88002,0 -1.79669,2.46858 c -2.17257,2.98503 -2.92074,3.10238 -4.22631,0.6629 z m 121.45513,-24.36859 c -2.68872,-0.97553 -2.78479,-1.15335 -1,-1.85077 3.21158,-1.25495 4.21128,-1.02668 4.76425,1.08788 0.58634,2.24217 0.41089,2.27773 -3.76425,0.76289 z m 43.72083,75.56501 c 0.85572,-0.50609 -1.92462,-6.32792 -3.02201,-6.32787 -0.81763,3e-5 -6.22432,6.54474 -6.22432,7.53444 0,0.64404 7.84907,-0.3802 9.24633,-1.20657 z m -5.2995,-2.71085 c 2.12067,-2.30975 2.56612,-2.45185 3.34167,-1.06602 1.09559,1.95773 0.95862,2.10541 -2.79055,3.00871 l -2.99795,0.72231 2.44683,-2.665 z m 417.92593,-26.09794 c 14.1659,-2.1277 38.1779,-11.00997 36.6123,-13.54326 -0.3239,-0.52412 0.027,-0.71639 0.7809,-0.42727 1.976,0.75826 7.1571,-3.52548 5.8477,-4.83488 -1.287,-1.287 -4.398,1.01733 -3.4482,2.55412 0.3596,0.58186 0.1636,0.74461 -0.4442,0.36892 -0.5983,-0.36975 -3.9737,0.91401 -7.5009,2.85281 -7.6458,4.20265 -17.5914,7.69853 -28.9243,10.16688 -6.3319,1.3791 -12.3211,1.78248 -25.2961,1.70374 l -17,-0.10317 -19,-6.02931 C 996.66422,487.5304 963.19292,476.90561 939.24652,469.29288 c -15.4,-4.89577 -57.92498,-18.39487 -94.49998,-29.998 -36.575,-11.60313 -75.725,-24.02649 -87,-27.60747 -11.275,-3.58097 -22.03714,-6.99306 -23.91586,-7.58241 -4.01641,-1.25994 -11.58822,-7.9473 -13.76538,-12.15744 -2.10803,-4.07649 -2.12201,-11.43178 -0.0298,-15.64953 0.95492,-1.925 7.91804,-10.73174 15.4736,-19.57054 7.55557,-8.8388 19.42245,-22.7888 26.37086,-31 6.94841,-8.2112 23.3079,-27.52946 36.35442,-42.92946 13.04652,-15.4 36.91762,-43.57733 53.04689,-62.61629 16.12927,-19.03896 30.0608,-34.89828 30.95896,-35.24294 0.89816,-0.34465 1.41254,-0.98339 1.14306,-1.41942 -0.26948,-0.43603 0.2645,-0.85347 1.18662,-0.92764 0.92212,-0.0742 4.37658,-1.1176 7.67658,-2.31872 11.70221,-4.25934 25.02333,-3.58235 40.00003,2.03283 3.3,1.23727 10.725,3.72858 16.5,5.53624 5.775,1.80766 15.45,4.86264 21.5,6.78884 6.05,1.9262 30.12498,9.57925 53.49998,17.00678 23.375,7.42752 48.35,15.37496 55.5,17.66097 7.15,2.28601 20.875,6.62603 30.5,9.6445 9.625,3.01846 23.575,7.4528 31,9.85408 7.425,2.40128 45.675,14.54973 85,26.99656 39.325,12.44683 82.075,25.98977 95,30.09542 12.925,4.10566 25.2719,8.00209 27.4375,8.65875 2.1656,0.65666 5.4591,2.22648 7.3188,3.4885 1.8596,1.26202 3.8114,2.0287 4.3372,1.70373 0.5258,-0.32497 0.8524,-0.2199 0.7257,0.23348 -0.1267,0.45338 0.5371,2.26448 1.4752,4.02467 0.9381,1.76019 1.7056,5.21699 1.7056,7.68178 0,4.16003 -0.5917,5.17945 -8.25,14.21352 -4.5375,5.35264 -12.3,14.54001 -17.25,20.41638 -13.3022,15.79172 -72.3678,85.46127 -91.9756,108.48798 -25.5857,30.04681 -30.4098,35.90481 -30.4697,37 -0.1401,2.56118 2.5822,0.31557 9.2269,-7.61117 3.9701,-4.73614 15.7684,-18.66148 26.2184,-30.94521 10.45,-12.28372 24.175,-28.48204 30.5,-35.99625 6.325,-7.51422 18.7,-22.12742 27.5,-32.47378 51.2822,-60.29366 57.4868,-67.88653 58.0865,-71.08284 0.9548,-5.08955 -1.221,-9.87684 -6.7473,-14.84538 -4.6216,-4.15522 -6.5726,-5.01049 -24.1832,-10.60102 -22.4192,-7.11706 -34.7669,-11.03589 -132.156,-41.94288 -40.15,-12.74183 -88.525,-28.11377 -107.5,-34.15987 -18.975,-6.04609 -42.825,-13.61035 -53,-16.80947 -40.5735,-12.75668 -101.17218,-32.09604 -112.65088,-35.9512 -10.7846,-3.62202 -13.2068,-4.08093 -21.5399,-4.08093 -11.20799,0 -19.402,1.93346 -26.59506,6.27538 -5.10334,3.0805 -12.46596,11.44376 -70.21412,79.75683 -16.77672,19.84599 -33.39567,39.47538 -63.44393,74.93651 -34.67916,40.92623 -35.39034,41.98229 -34.09389,50.62764 1.14543,7.63827 10.0283,17.06422 18.73612,19.8816 2.36593,0.76549 18.7017,5.9508 36.3017,11.52291 56.92564,18.02248 124.15012,39.36376 144.99998,46.03211 17.0281,5.44603 94.67028,30.03467 115.49998,36.57789 9.625,3.02349 19.3,6.11458 21.5,6.86909 13.0999,4.4927 77.5029,24.46356 80,24.80735 7.4787,1.02964 30.3775,0.58287 39.3728,-0.7682 z M 715.94149,384.79803 c 0.0204,-1.65 0.2445,-2.20394 0.49804,-1.23097 0.25354,0.97297 0.23687,2.32297 -0.0371,3 -0.27393,0.67703 -0.48137,-0.11903 -0.46099,-1.76903 z m 640.31211,-67.48855 c -0.3504,-0.56686 0.051,-0.7345 0.941,-0.39301 1.7324,0.66479 2.0493,1.38156 0.6109,1.38156 -0.5175,0 -1.2159,-0.44485 -1.5519,-0.98855 z m -348.3358,201.33356 c 2.5079,-2.26966 2.3019,-4.35979 -0.4213,-4.27472 -1.9038,0.0595 -1.9766,0.17832 -0.4733,0.77243 1.6422,0.64904 1.655,0.85172 0.1683,2.67971 -1.0556,1.29796 -1.4466,1.44768 -1.1379,0.43568 0.7571,-2.48173 -2.0261,-5.30077 -6.57788,-6.66251 -5.5702,-1.66643 -7.0699,-1.62591 -6.3798,0.17237 0.3098,0.80739 0.1329,1.73395 -0.3931,2.05902 -0.5259,0.32508 -0.9563,1.01449 -0.9563,1.53203 0,1.47019 2.6198,1.10407 4,-0.55902 1.8786,-2.26357 3.2922,-1.80038 2.6245,0.85996 -0.5005,1.99438 -0.091,2.52074 2.64158,3.39791 4.5459,1.45904 4.8573,1.44042 6.9052,-0.41286 z m -5.6713,-1.34501 c 0.3399,-0.55 0.8165,-1 1.059,-1 0.2426,0 0.441,0.45 0.441,1 0,0.55 -0.4765,1 -1.059,1 -0.5825,0 -0.7809,-0.45 -0.441,-1 z m -2.1163,-1.72642 c 1.6625,-1.96513 3.6163,-2.26113 3.6163,-0.5479 0,0.33421 -0.301,0.30667 -0.6688,-0.0612 -0.3679,-0.36786 -1.6054,0.11964 -2.75,1.08334 -2.07568,1.7476 -2.07628,1.74636 -0.1975,-0.47424 z m -6.36838,-0.80929 c 0.027,-1.72154 1.8555,-3.92685 2.6208,-3.16152 0.4097,0.40967 -0.016,1.50556 -0.9456,2.43533 -0.9298,0.92976 -1.6836,1.25654 -1.6752,0.72619 z M 1119.4131,492.8946 c 1.8162,-2.38085 40.8478,-48.51752 61.4167,-72.59657 5.8728,-6.875 23.8198,-28.025 39.8822,-47 16.0624,-18.975 30.1787,-35.63783 31.3695,-37.0285 9.6096,-11.22284 11.8203,-14.20683 11.0488,-14.91378 -0.4861,-0.44548 -11.9088,-4.29316 -25.3838,-8.55041 -13.475,-4.25724 -33.5,-10.58459 -44.5,-14.06076 -11,-3.47618 -40.025,-12.68753 -64.5,-20.46968 -24.475,-7.78215 -48.5501,-15.40891 -53.5002,-16.94837 -4.9501,-1.53945 -18.2251,-5.75103 -29.5,-9.35907 -11.2749,-3.60804 -31.2998,-9.98991 -44.4998,-14.18194 -13.19998,-4.19203 -28.15468,-8.97613 -33.23258,-10.63135 -5.0779,-1.65522 -9.8348,-2.86248 -10.5708,-2.68281 -0.7359,0.17967 -6.7175,6.62667 -13.2923,14.32667 -11.5249,13.49715 -66.63635,78.43999 -78.8656,92.93446 -3.27873,3.88605 -17.10327,20.20949 -30.7212,36.27433 -13.61792,16.06483 -24.43533,29.39899 -24.03867,29.63146 0.39665,0.23247 4.7254,1.63583 9.61943,3.11857 4.89403,1.48275 13.44403,4.18877 19,6.01339 5.55597,1.82463 13.25176,4.31207 17.10176,5.52766 18.20388,5.74764 75.09348,23.76792 102.49998,32.46773 16.775,5.325 34.1,10.79999 38.5,12.16665 4.39998,1.36666 9.79998,3.10185 11.99998,3.85597 2.2,0.75412 12.1,3.91954 22,7.03426 9.9,3.11473 28.575,9.04245 41.5,13.17273 12.925,4.13027 26.875,8.54547 31,9.81156 4.125,1.26608 8.625,2.76603 10,3.33321 3.5218,1.45274 3.6258,1.42988 5.6666,-1.24541 z m -44.1666,-12.18374 c -21.45,-6.84711 -48.1798,-15.40385 -59.3996,-19.01497 -11.2197,-3.61111 -24.49468,-7.82984 -29.49998,-9.37494 -14.8346,-4.57942 -96.21497,-30.41833 -127.60038,-40.51416 -7.425,-2.38842 -20.1402,-6.42953 -28.256,-8.98025 l -14.756,-4.63767 11.256,-13.29558 c 6.1908,-7.31257 31.26003,-36.87551 55.70939,-65.69542 24.44939,-28.81991 51.17329,-60.32105 59.38639,-70.00252 l 14.933,-17.60268 5.6136,1.77179 c 3.0875,0.97449 16.4136,5.20989 29.6136,9.41201 38.62098,12.29468 61.95098,19.70698 95.49998,30.34176 34.7971,11.03043 33.8434,10.72785 80.5,25.54148 18.15,5.76269 45.375,14.38845 60.5,19.16835 15.125,4.7799 27.8691,9.03261 28.3201,9.45046 0.4511,0.41786 -16.6489,21.361 -38,46.54032 -21.351,25.17932 -52.7917,62.25027 -69.868,82.37989 -19.4545,22.93304 -31.7768,36.66691 -33,36.78036 -1.0737,0.0996 -19.5021,-5.42111 -40.9521,-12.26823 z M 811.74654,396.73359 c 0,-0.48788 32.46416,-39.08115 34.01387,-40.43556 0.46254,-0.40425 40.59257,-47.79215 71.89711,-84.90041 33.7974,-40.06319 38.596,-45.40041 38.9083,-43.27599 0.2366,1.6097 -5.3277,8.82466 -21.5,27.87806 -12.0006,14.13847 -25.6211,30.22701 -30.26787,35.75232 -4.64672,5.52531 -12.52172,14.81129 -17.5,20.63552 -4.97827,5.82422 -23.2117,27.31172 -40.51871,47.75 -19.65938,23.21623 -32.13626,37.1605 -33.25,37.1605 -0.98049,0 -1.7827,-0.254 -1.7827,-0.56444 z m 445.49996,-70.94414 c -0.55,-0.19288 -10.225,-3.27856 -21.5,-6.85706 -11.275,-3.5785 -35.575,-11.30157 -54,-17.16238 -49.0281,-15.59533 -53.4199,-16.98876 -77,-24.43042 -19.0053,-5.99789 -63.4076,-20.09225 -118.49998,-37.61477 -9.9,-3.14876 -20.3616,-6.44542 -23.2481,-7.3259 -4.7318,-1.44338 -5.2483,-1.88199 -5.25,-4.45788 -10e-4,-1.86666 0.4314,-2.69632 1.2481,-2.39347 0.6875,0.25494 30.725,9.79177 66.74998,21.19296 36.025,11.40119 71.575,22.67862 79,25.06097 7.425,2.38234 18.45,5.89614 24.5,7.80843 25.6725,8.11464 48.5234,15.37262 71.5,22.71013 13.475,4.3032 32.825,10.42233 43,13.59807 10.175,3.17574 18.6847,5.90762 18.9105,6.07085 0.5311,0.38395 -3.0318,4.33408 -3.8155,4.2301 -0.3272,-0.0434 -1.045,-0.23675 -1.595,-0.42963 z M 872.5929,289.72479 c 3.76579,-1.87862 4.08775,-3.42676 0.71266,-3.42676 -1.34254,0 -2.72364,-0.45734 -3.0691,-1.01631 -0.34546,-0.55897 -1.06673,-0.74523 -1.60282,-0.41391 -0.53609,0.33132 -1.5175,0.16873 -2.1809,-0.3613 -0.66341,-0.53004 -2.21587,-1.2732 -3.44991,-1.65148 -1.6894,-0.51787 -2.11049,-0.34063 -1.70449,0.7174 0.29657,0.77284 -0.15626,1.98237 -1.00629,2.68783 -1.13149,0.93905 -1.54551,0.96616 -1.54551,0.1012 0,-0.64981 -0.51953,-0.86038 -1.15451,-0.46794 -0.72104,0.44563 -0.88282,0.27393 -0.4309,-0.45729 0.39798,-0.64395 1.11142,-0.93114 1.58541,-0.6382 1.16566,0.72041 2.03599,-0.84243 1.18402,-2.1261 -0.67924,-1.02342 -19.31337,-7.3739 -21.63711,-7.3739 -0.68175,0 -1.21358,1.31469 -1.21358,3 0,3.19152 1.64982,3.93015 3.58099,1.60323 0.63757,-0.76822 2.03192,-1.16854 3.09856,-0.88961 1.53166,0.40054 1.73358,0.89161 0.96052,2.33608 -1.32452,2.47489 0.62656,3.61149 2.83961,1.6542 0.92785,-0.82062 2.89801,-1.48345 4.37814,-1.47296 2.54412,0.018 2.61218,0.13958 1.24577,2.22498 -1.37491,2.09839 -1.27015,2.2597 2.14894,3.30905 1.97687,0.60672 4.22877,0.85966 5.00422,0.56209 0.77546,-0.29757 1.40992,-0.0429 1.40992,0.56595 0,0.60885 0.675,1.10699 1.5,1.10699 0.825,0 1.5,-0.40186 1.5,-0.89301 0,-0.49116 0.72506,-1.17124 1.61125,-1.51131 1.30407,-0.50042 1.49108,-0.13953 0.98094,1.89302 -0.75238,2.99771 0.63056,3.24462 5.25417,0.93806 z m -3.57303,-1.40515 c 0.0838,-1.11188 0.50652,-2.02161 0.93947,-2.02161 1.10577,0 0.98438,2.7601 -0.15228,3.4626 -0.51671,0.31934 -0.87095,-0.3291 -0.78719,-1.44099 z m -23.22621,-5.52161 c -0.0245,-1.48594 1.76048,-4.02573 2.38817,-3.39804 0.29923,0.29922 -0.11199,1.41119 -0.91382,2.47104 -0.80182,1.05985 -1.46528,1.477 -1.47435,0.927 z m -6.84345,-4.45452 c 1.37978,-2.20937 2.35126,-1.93398 1.45125,0.41139 -0.32568,0.84872 -1.06009,1.54313 -1.63201,1.54313 -0.65816,0 -0.5918,-0.71745 0.18076,-1.95452 z m 12.17789,5.40258 c 0.34149,-0.88992 0.17385,-1.29132 -0.39301,-0.94098 -0.5437,0.33602 -0.98855,1.0344 -0.98855,1.55194 0,1.43843 0.71677,1.12146 1.38156,-0.61096 z m -16.07506,-6.19806 c 0.72151,-3.67673 -0.51422,-4.72184 -4.10357,-3.47059 -2.47839,0.86397 -2.929,0.77222 -2.82576,-0.57537 0.0696,-0.90816 -1.07881,-2.03726 -2.64876,-2.60428 -2.30292,-0.83176 -3.12665,-0.64596 -4.87135,1.09874 -2.82187,2.82186 -1.85204,3.9354 4.70564,5.40294 3.04072,0.68049 5.75961,1.61104 6.04196,2.0679 1.09992,1.77972 3.18844,0.69685 3.70184,-1.91934 z m -2.38983,1.5 c -0.55546,-1.66636 -0.39287,-4.75 0.25045,-4.75 0.45808,0 0.83288,1.125 0.83288,2.5 0,2.00227 -0.68895,3.43316 -1.08333,2.25 z m -4.91667,-2.14301 c 0,-0.21616 0.69837,-0.661 1.55194,-0.98855 0.88992,-0.34149 1.29132,-0.17385 0.94098,0.39301 -0.58726,0.95021 -2.49292,1.40545 -2.49292,0.59554 z m -2.96937,-1.10699 c 0,-0.55 0.43621,-1.675 0.96937,-2.5 0.53316,-0.825 0.96937,-1.05 0.96937,-0.5 0,0.55 -0.43621,1.675 -0.96937,2.5 -0.53316,0.825 -0.96937,1.05 -0.96937,0.5 z m -5.03063,-1.3 c 0,-1.03903 2.1667,-3.2 3.20847,-3.2 0.44466,0 0.24642,0.9 -0.44054,2 -1.26178,2.02042 -2.76793,2.6734 -2.76793,1.2 z m 38.45163,-1.61534 c 1.86306,-0.77844 3.85221,-2.28387 4.42032,-3.3454 2.50254,-4.67603 -6.49985,-9.50726 -13.44472,-7.21525 -5.78135,1.90802 -6.99687,7.38902 -2.16066,9.74276 5.23808,2.54932 6.7726,2.66153 11.18506,0.81789 z m -7.19547,-0.633 c -6.20071,-1.33147 -7.99475,-4.6205 -4.03365,-7.39496 2.52605,-1.76931 9.94853,-2.07071 12.84323,-0.52152 2.05514,1.09988 2.65337,5.40235 0.90169,6.48495 -2.34257,1.44779 -6.66693,2.08524 -9.71127,1.43153 z M 686.99654,774.26687 c -2.05414,-0.82567 -2.25,-1.56005 -2.25,-8.43662 0,-4.14272 0.3375,-7.52608 0.75,-7.51857 0.4125,0.008 1.7625,0.285 3,0.61664 2.09207,0.56065 2.25,1.15632 2.25,8.48634 0,4.33585 -0.3375,7.85485 -0.75,7.81998 -0.4125,-0.0349 -1.7625,-0.47036 -3,-0.96777 z m 5.75,-6.04216 c 0,-6.1989 0.21634,-7.03145 1.75,-6.73453 1.24398,0.24082 1.70684,1.20178 1.60072,3.32332 -0.0821,1.64149 -0.1946,4.67203 -0.25,6.73453 -0.0704,2.6219 -0.55196,3.75 -1.60072,3.75 -1.19196,0 -1.5,-1.45259 -1.5,-7.07332 z m 432.99996,6.03621 c -2.8246,-0.72303 -2.8013,-2.44302 0.075,-5.52734 1.7772,-1.9058 1.9251,-3.72642 1.9251,-23.69098 0,-13.81565 0.3735,-21.85738 1.0342,-22.2657 1.1509,-0.7113 1.2412,35.56572 0.1146,46.07254 -0.6269,5.84678 -0.7333,6.02978 -3.1488,5.41148 z M 679.74654,763.89165 c 0,-6.91405 0.13295,-7.37161 2,-6.88337 1.75564,0.45911 2,1.36402 2,7.40638 0,6.2167 -0.1937,6.88337 -2,6.88337 -1.81998,0 -2,-0.66667 -2,-7.40638 z m 443.39316,-13.84852 c 0.4047,-16.79142 0.8041,-21.18363 2.0916,-23 1.4743,-2.08003 1.5804,-0.71753 1.4427,18.53071 -0.1362,19.02056 -0.3129,20.96372 -2.0917,23 -1.9308,2.21032 -1.9398,2.09478 -1.4426,-18.53071 z M 669.49654,767.6087 c -1.45422,-0.38002 -1.75,-1.62804 -1.75,-7.38399 0,-6.26001 0.19249,-6.92668 2,-6.92668 1.82222,0 2,0.66667 2,7.5 0,4.125 -0.1125,7.4478 -0.25,7.384 -0.1375,-0.0638 -1.0375,-0.3218 -2,-0.57333 z m 3.64301,-2.89246 c 0.33385,-0.86998 0.60699,-3.52785 0.60699,-5.90638 0,-3.83226 0.22769,-4.26505 2,-3.80158 2.46841,0.64551 2.47226,1.65256 0.0269,7.03975 -1.79892,3.96312 -3.97783,6.17039 -2.63392,2.66821 z m 21.23102,-7.28834 c 0.53298,-2.66493 0.30952,-2.91975 -3.12538,-3.56415 -2.70917,-0.50824 -4.16205,-0.27532 -5.42777,0.87014 -0.9506,0.86027 -2.489,1.56414 -3.41867,1.56414 -1.29909,0 -1.54654,-0.57282 -1.06915,-2.47491 0.50309,-2.00447 0.12466,-2.70114 -1.99084,-3.66503 -2.23134,-1.01666 -2.93847,-0.89992 -4.85211,0.80104 -2.98746,2.65544 -5.65372,1.98558 -5.42018,-1.36174 0.15258,-2.18697 -0.4305,-2.77856 -3.81993,-3.87564 -2.2,-0.71209 -11.36489,-3.62613 -20.36643,-6.47564 -14.69349,-4.65135 -20.13357,-7.29222 -20.13357,-9.77377 0,-2.05259 4.97527,-5.20702 9.0566,-5.74207 3.77273,-0.4946 9.34882,0.9493 36.9434,9.56632 38.92756,12.156 43.14108,13.63472 44.71125,15.69127 2.85047,3.73343 -3.51311,8.31017 -11.5546,8.31017 -3.471,0 -5.11406,0.44662 -5.51828,1.5 -0.31658,0.825 -1.47847,1.5 -2.58199,1.5 -1.6758,0 -1.9118,-0.47289 -1.43235,-2.87013 z m 12.42375,-4.18102 c 1.56761,-1.67813 2.60836,-3.68136 2.31278,-4.45163 -0.68588,-1.78738 -6.5409,-3.74898 -8.70794,-2.91741 -0.90894,0.34879 -1.65262,0.17832 -1.65262,-0.37882 0,-0.55714 -2.10291,-1.72952 -4.67314,-2.60528 -4.35758,-1.48478 -4.80548,-1.47425 -6.6329,0.15599 -1.88578,1.6823 -1.93474,1.66783 -1.29706,-0.38328 0.878,-2.82408 -2.03485,-4.00605 -4.46118,-1.81024 -1.64919,1.49249 -1.79848,1.44174 -2.10539,-0.71568 -0.41044,-2.8852 -3.36909,-3.56989 -5.8244,-1.34787 -1.74129,1.57585 -1.86387,1.53858 -2.1756,-0.66152 -0.43295,-3.05577 -6.56459,-5.26484 -10.48071,-3.77594 -2.26028,0.85936 -2.47169,0.79485 -1.44585,-0.44122 0.97378,-1.17334 0.80336,-1.57413 -0.89911,-2.11447 -1.15535,-0.36669 -2.73433,-0.1408 -3.50884,0.50199 -1.69116,1.40354 -3.61499,0.47066 -2.89559,-1.40407 0.65309,-1.70193 -3.05373,-2.7459 -4.52517,-1.27446 -0.79147,0.79147 -1.51339,0.49426 -2.61307,-1.07575 -0.83571,-1.19314 -3.04865,-2.45622 -4.91764,-2.80685 -2.97387,-0.5579 -3.77822,-0.21951 -6.44195,2.71008 -1.67407,1.84117 -3.05696,3.6992 -3.07309,4.12896 -0.0478,1.27325 2.8342,1.99156 4.72069,1.17661 0.9625,-0.41579 3.39282,-0.80144 5.40072,-0.85699 3.27325,-0.0906 3.54691,0.0931 2.64675,1.77617 -0.73173,1.36817 -0.63702,2.1097 0.34928,2.73469 1.78178,1.12906 2.60325,1.10166 3.35325,-0.11186 1.01692,-1.64542 3.28836,-1.13041 3.13889,0.71169 -0.19585,2.41365 3.129,2.80834 5.50949,0.65403 1.09977,-0.99528 1.913,-1.37222 1.80718,-0.83766 -0.50369,2.54444 0.32635,3.69178 3.68647,5.09573 2.2961,0.95937 4.60581,1.24781 6.25,0.7805 1.43438,-0.40767 2.97118,-0.77791 3.41509,-0.82276 0.44392,-0.0448 1.62384,-1.16427 2.62204,-2.48762 2.10527,-2.79102 5.07084,-2.27947 5.07084,0.87471 0,1.139 0.65894,2.03138 1.5,2.03138 0.825,0 1.5,-0.45 1.5,-1 0,-0.55 0.98419,-1 2.18709,-1 2.09677,0 2.06839,0.12389 -0.68709,3 -3.59406,3.75139 -4.28329,3.74502 -5.88078,-0.0543 -1.15147,-2.73854 -1.42354,-2.88642 -2.63187,-1.43048 -0.7412,0.89309 -2.16612,1.40977 -3.1665,1.14816 -2.3629,-0.61791 -3.469,1.15065 -1.25177,2.00148 0.93272,0.35792 2.5716,0.10385 3.64196,-0.5646 1.66126,-1.03748 2.02221,-0.92433 2.46607,0.773 0.80104,3.06317 3.34134,3.43838 6.22835,0.91997 1.427,-1.24481 2.03204,-1.61753 1.34454,-0.82827 -0.6875,0.78926 -1.25,1.93413 -1.25,2.54415 0,1.24786 9.55736,4.60017 10.48119,3.67635 1.14972,-1.14973 5.37868,-1.22123 6.07001,-0.10264 0.47823,0.7738 0.0275,0.91822 -1.42597,0.45691 -1.23595,-0.39226 -2.12523,-0.23983 -2.12523,0.36429 0,0.8767 4.45315,2.69811 7.34879,3.00579 0.46683,0.0496 2.13138,-1.28283 3.69899,-2.96096 z m -4.48806,-0.24388 c 0.27332,-0.71226 -0.6408,-2.28429 -2.03139,-3.49339 -1.39058,-1.20909 -2.52833,-1.75133 -2.52833,-1.20497 0,0.54637 -0.5051,0.99339 -1.12244,0.99339 -0.7961,0 -0.77484,-0.41885 0.0731,-1.44056 1.42453,-1.71646 3.34702,-1.11482 6.86965,2.14985 2.15966,2.0015 2.35367,2.56874 1.14091,3.33583 -2.06045,1.30327 -2.98206,1.17273 -2.40151,-0.34015 z m -15.79272,-3.39102 c -1.11315,-0.29165 -1.66248,-1.30619 -1.53583,-2.83649 0.10845,-1.31034 0.40178,-2.17784 0.65185,-1.92777 0.25007,0.25007 1.21262,-0.23125 2.13899,-1.0696 1.25533,-1.13607 2.29475,-1.28011 4.08115,-0.56557 1.90411,0.76162 2.01509,0.97174 0.53985,1.02209 -1.15187,0.0393 -1.65654,0.58576 -1.32908,1.4391 0.31798,0.82864 -0.0937,1.32572 -1.03538,1.25 -2.23924,-0.18006 -2.74039,2.1153 -0.58389,2.67431 1.08123,0.28027 1.2037,0.46798 0.30534,0.46798 -0.825,0 -2.27985,-0.20432 -3.233,-0.45405 z m 18.733,-1.31395 c -0.33992,-0.55 -0.16803,-1 0.38197,-1 0.55,0 1.27811,0.45 1.61803,1 0.33992,0.55 0.16803,1 -0.38197,1 -0.55,0 -1.27811,-0.45 -1.61803,-1 z m -44.25,-7.03116 c -4.16462,-1.67398 -2.34926,-5.96884 2.52292,-5.96884 1.35897,0 1.32097,0.21086 -0.24427,1.35539 -1.13487,0.82984 -1.6089,1.9931 -1.22251,3 0.81221,2.1166 3.09546,2.10015 5.23333,-0.0377 1.57643,-1.57643 1.56519,-1.77092 -0.17857,-3.08984 -1.80978,-1.36886 -1.80891,-1.39819 0.0319,-1.06768 1.04105,0.18692 2.39105,1.15371 3,2.14842 2.12191,3.46612 -3.76372,5.8224 -9.14282,3.66027 z m 1.75,-1.86185 c 0,-1.10376 2.59467,-2.17899 3.37505,-1.39861 0.31382,0.31382 0.33125,0.95781 0.0388,1.4311 -0.70205,1.13593 -3.4138,1.11012 -3.4138,-0.0325 z m -10.62385,-2.64484 c 0.80311,-2.09286 -2.1473,-3.08616 -4.60599,-1.55068 -2.73052,1.70524 -3.35502,0.63008 -1.38257,-2.38026 1.77302,-2.70597 5.22965,-3.5821 4.27043,-1.0824 -0.70106,1.82692 3.11101,3.18216 4.64264,1.65053 0.60464,-0.60464 1.71498,-1.09934 2.46743,-1.09934 0.98678,0 0.77269,0.83618 -0.76809,3 -2.23507,3.13887 -5.68602,4.23012 -4.62385,1.46215 z m -19.37615,-5.28784 c 0,-1.25331 4.45769,-5.17431 5.88255,-5.17431 0.80873,0 0.49552,1.06467 -0.88255,3 -1.9763,2.77545 -5,4.09035 -5,2.17431 z m 7.60006,-0.93962 c 0.60503,-0.40408 1.28003,-1.28277 1.5,-1.95264 0.25093,-0.76417 0.9134,-0.89897 1.77806,-0.36181 1.87492,1.16479 0.50568,3.08327 -2.18714,3.06445 -1.26812,-0.009 -1.72763,-0.32477 -1.09092,-0.75 z m 46.4083,26.79164 c -2.44145,-1.54354 0.25891,-3.34618 3.83574,-2.56057 2.08511,0.45797 2.86882,1.11879 2.49185,2.10116 -0.6227,1.62273 -4.08942,1.87443 -6.32759,0.45941 z m 453.1241,-1.92326 c -1.1181,-0.70836 -0.9991,-1.38924 0.653,-3.73468 1.8021,-2.55836 2.0837,-4.97608 2.6061,-22.36839 0.8493,-28.27531 0.699,-25.88359 1.4581,-23.20601 0.3577,1.26169 0.5222,13.07419 0.3657,26.25 -0.2598,21.86077 -0.4347,23.95467 -2,23.9407 -0.9435,-0.008 -2.3308,-0.40515 -3.0829,-0.88162 z m 6.2185,-27.60307 0.5118,-28 2.8323,-3.38227 2.8324,-3.38227 -0.345,28.38227 -0.3451,28.38227 -2.999,3 -2.9991,3 0.5117,-28 z m -471.14829,25.64642 c -1.98323,-1.25805 0.85655,-3.2052 3.62044,-2.48243 1.75265,0.45833 1.9787,0.86989 1.07552,1.95815 -1.29425,1.55948 -2.79918,1.7275 -4.69596,0.52428 z m 463.82909,-22.18213 c 0.024,-15.43076 0.3586,-20.89473 1.3602,-22.21429 0.7307,-0.9625 1.5039,-1.75049 1.7182,-1.75109 0.2144,-6e-4 0.252,9.3369 0.084,20.75 -0.2424,16.43442 -0.6065,21.05569 -1.75,22.21538 -1.2591,1.27693 -1.4397,-1.15408 -1.412,-19 z m 15.9682,7.48605 c 0,-0.30231 0.6413,-1.78986 1.4252,-3.30565 1.0952,-2.11791 1.4509,-7.83345 1.5362,-24.68652 0.064,-12.57714 0.522,-22.34159 1.0748,-22.89435 1.1427,-1.14276 1.2713,14.01393 0.3077,36.27719 -0.5985,13.82723 -0.8182,15.15899 -2.5,15.15899 -1.0142,0 -1.8439,-0.24735 -1.8439,-0.54966 z m 5.7463,-28.06619 0.2463,-27.61678 2.9702,-3.63369 2.9701,-3.63368 0.034,27.80343 0.034,27.80343 -2.75,3.44654 c -1.5125,1.8956 -2.975,3.44676 -3.25,3.44704 -0.275,2.7e-4 -0.3892,-12.42706 -0.2537,-27.61629 z m -7.2282,4.61585 c 0.5463,-18.19838 0.967,-22.78677 2.2005,-24 1.3663,-1.34384 1.4622,0.83678 0.9209,20.94662 -0.5031,18.69278 -0.8711,22.7064 -2.2005,24 -1.4611,1.42172 -1.5391,-0.35364 -0.9209,-20.94662 z m -306.51806,11.47525 c 0,-4.97268 0.24977,-5.61972 2.49957,-6.47509 1.37476,-0.52268 3.84976,-0.68029 5.5,-0.35025 2.92534,0.58507 3.00043,0.74713 3.00043,6.47509 l 0,5.875 -5.5,0 -5.5,0 0,-5.52475 z m 30.60285,-0.26464 c 0.32298,-5.74573 1.32486,-7.16888 5.06536,-7.1953 4.60005,-0.0325 5.33188,0.9069 5.33,6.84168 l -0.002,5.64301 -5.35248,0.12509 -5.35249,0.1251 0.3114,-5.53958 z m 30.39713,-1.0154 0,-6.30479 4.75,0.30479 4.75,0.30479 0.2912,6 0.2913,6 -5.0413,0 -5.0412,0 0,-6.30479 z m 30,-0.0702 c 0,-5.72796 0.075,-5.89002 3.0004,-6.47509 1.6503,-0.33004 4.0128,-0.2157 5.25,0.2541 2.0278,0.76996 2.2158,1.40843 1.9071,6.47509 l -0.3426,5.62089 -4.9074,0 -4.9075,0 0,-5.875 z m 30,-0.17251 c 0,-6.16735 0.6721,-6.96679 5.8318,-6.93718 4.4893,0.0258 5.312,1.1821 4.9759,6.99439 l -0.3077,5.3204 -5.25,0.18045 -5.25,0.18046 0,-5.73852 z m 26.5298,5.0475 c -0.1536,-0.275 -0.055,-3.0875 0.2193,-6.25 l 0.4986,-5.75 4.8761,0 4.87618,0 0,6.25 0,6.25 -5.09548,0 c -2.8025,0 -5.2211,-0.225 -5.3747,-0.5 z m 175.72018,-9.03116 c -2.2382,-0.89965 -2.2498,-1.01853 -2.2182,-22.68662 0.024,-16.5268 0.3523,-22.20444 1.3602,-23.53222 0.7307,-0.9625 1.5323,-1.75 1.7815,-1.75 0.9983,0 -0.4351,44.55433 -1.4799,46 -0.9636,1.33333 -0.9033,1.33333 0.543,0 1.3732,-1.26597 1.7339,-5.16651 2.3119,-25 0.3767,-12.925 1.1117,-23.95 1.6333,-24.5 0.5996,-0.63223 0.7654,2.67772 0.4509,9 -0.2736,5.5 -0.5279,17.5375 -0.5651,26.75 -0.037,9.2125 -0.4051,16.72148 -0.8176,16.68661 -0.4125,-0.0349 -1.7625,-0.47036 -3,-0.96777 z m 15.8671,-17.87532 c -1.1635,-0.7369 -1.1348,-1.23016 0.1811,-3.10884 1.2987,-1.85416 1.5813,-6.06843 1.6657,-24.84159 0.059,-13.08171 0.5092,-23.0162 1.0689,-23.57586 0.6229,-0.62297 0.9672,2.60628 0.9672,9.07306 0,15.24501 -1.2371,43.3617 -1.907,43.3444 -0.3262,-0.008 -1.2153,-0.40945 -1.9759,-0.89117 z m -3.3087,-22.84253 c 0.2883,-20.32551 0.4417,-21.88206 2.3419,-23.75099 l 2.0334,-2 -0.6057,22.41416 c -0.5595,20.70686 -1.1614,25.08321 -3.4504,25.08683 -0.3452,5.5e-4 -0.4888,-9.78695 -0.3192,-21.75 z m 17.4417,5.92473 c -0.9814,-0.62317 -0.9346,-1.21063 0.2182,-2.73469 1.1883,-1.57108 1.4742,-6.26577 1.4999,-24.63201 0.02,-14.01336 0.4142,-22.92734 1.0318,-23.30902 0.6569,-0.40598 1,8.32295 1,25.44098 0,26.69284 -0.1253,27.53623 -3.7499,25.23474 z m 4.5163,-27.23317 -0.2664,-27.44255 2.9174,-3.75 c 1.6045,-2.0625 3.3617,-3.75 3.9049,-3.75 0.6369,0 0.757,6.12365 0.3383,17.25 -0.3571,9.4875 -0.6701,21.975 -0.6956,27.75 -0.045,10.14453 -0.1459,10.61655 -2.9892,13.94255 l -2.943,3.44256 -0.2664,-27.44256 z m -6.9379,3.73671 c 0.259,-17.4781 0.6299,-22.48963 1.75,-23.64355 1.2299,-1.26695 1.4215,1.50844 1.4215,20.59502 0,19.73866 -0.1841,22.22596 -1.75,23.64354 -1.6626,1.50509 -1.7336,0.4761 -1.4215,-20.59501 z m 16.1285,5.03894 c -1.3287,-1.049 -1.4861,-4.20403 -1.1336,-22.71531 0.3075,-16.14896 0.7536,-21.98856 1.793,-23.47251 1.1959,-1.70747 1.3836,1.03064 1.3836,20.1881 0,13.69697 -0.382,22.39958 -1,22.78152 -0.55,0.33992 -1,1.09658 -1,1.68146 0,0.67059 0.5541,0.60356 1.5,-0.18146 1.2549,-1.04144 1.5,-5.05579 1.5,-24.56343 0,-14.467 0.3796,-23.55314 1,-23.93657 0.6569,-0.40598 1,8.32295 1,25.44098 0,24.16356 -0.1273,26.05671 -1.75,26.02722 -0.9625,-0.0175 -2.4443,-0.58 -3.293,-1.25 z m 6.043,-27.07436 0,-27.8107 7.5871,-8.87116 c 4.1729,-4.87914 7.3069,-9.3244 6.9646,-9.87836 -0.6019,-0.9739 19.158,-25.08362 20.5581,-25.08362 0.381,0 0.756,6.4125 0.8333,14.25 0.1591,16.13347 1.0673,18.76608 5.0333,14.59077 9.9134,-10.43633 44.1392,-52.01569 46.5236,-56.51938 2.8936,-5.4654 3.0113,-6.20284 3.3175,-20.79591 l 0.3175,-15.12957 19.0483,-22.44795 c 10.4765,-12.34638 27.4336,-32.32434 37.6825,-44.39546 10.2488,-12.07113 24.0342,-28.31801 30.6342,-36.10419 6.6,-7.78618 20.487,-24.14781 30.86,-36.35919 10.373,-12.21137 18.6893,-22.3732 18.4806,-22.58185 -0.2086,-0.20865 -2.7994,2.52558 -5.7573,6.07606 -2.9578,3.55049 -5.5796,6.25366 -5.8262,6.00705 -0.2467,-0.2466 2.18,-3.59078 5.3925,-7.4315 3.7731,-4.51089 6.1073,-6.5717 6.5931,-5.821 0.4137,0.63916 0.729,13.58908 0.7007,28.77759 l -0.051,27.61546 -12.1579,14.38454 c -14.3678,16.99932 -55.3604,65.35767 -78.7366,92.88453 -9.1079,10.725 -23.9916,28.275 -33.075,39 -9.0834,10.725 -22.0568,26.025 -28.8298,34 -6.773,7.975 -25.6061,30.25 -41.8514,49.5 -16.2453,19.25 -30.5954,36.11477 -31.8891,37.47727 l -2.3522,2.47728 0,-27.81071 z m 24.5,-56.32303 c 8.8126,-10.51974 10.9749,-13.32081 10.2831,-13.32081 -0.2534,0 -4.8326,5.175 -10.1758,11.5 -5.3433,6.325 -9.3533,11.47087 -8.9112,11.43526 0.4421,-0.0356 4.4039,-4.36211 8.8039,-9.61445 z m 100.746,-94.07081 c 3.617,-4.2625 11.1673,-13.15 16.7784,-19.75 12.7823,-15.03502 13.9251,-17.38962 13.9536,-28.75 0.012,-4.8125 -0.3302,-8.75 -0.7607,-8.75 -0.4305,0 -0.605,3.14401 -0.3879,6.98669 0.5588,9.88875 0.3116,10.2807 -5.281,8.37509 -2.5016,-0.85238 -4.5484,-1.77321 -4.5484,-2.04629 0,-0.27308 2.0797,-2.93078 4.6215,-5.906 2.5418,-2.97522 4.294,-5.40949 3.8939,-5.40949 -0.4002,0 -1.5406,1.03361 -2.5343,2.29691 -0.9937,1.2633 -8.2585,9.86444 -16.1439,19.11365 -21.4281,25.13399 -19.8372,22.55957 -19.8372,32.10091 0,12.26189 1.1506,12.45712 10.246,1.73853 z m -8.4363,5.22637 c -0.288,-0.288 -0.344,-2.80089 -0.1245,-5.5842 0.2891,-3.66698 1.0391,-5.65699 2.7231,-7.22637 1.2782,-1.19119 6.9506,-7.701 12.6053,-14.46624 6.8574,-8.2042 10.7625,-12.11571 11.7267,-11.74573 0.795,0.30508 2.5483,0.83148 3.8962,1.16977 1.3478,0.33829 2.2986,1.07121 2.1127,1.6287 -0.6557,1.96706 -30.2641,36.64264 -31.3325,36.69481 -0.5959,0.0291 -1.319,-0.18274 -1.607,-0.47074 z m 0.2692,-15.0597 c 0.048,-1.16495 0.285,-1.4019 0.6042,-0.60417 0.2889,0.72187 0.2534,1.58438 -0.079,1.91667 -0.3323,0.33229 -0.5687,-0.25834 -0.5253,-1.3125 z m 1.9211,-0.71513 c 0,-0.96416 5.466,-8.15393 12.1466,-15.97727 6.6806,-7.82335 12.3056,-14.41177 12.5,-14.64094 0.1944,-0.22916 0.3496,0.44584 0.345,1.5 -0.01,1.65156 -15.4441,21.063 -22.5802,28.39394 -2.0227,2.07797 -2.4114,2.19471 -2.4114,0.72427 z m 26.0805,-23.79541 c -1.8468,-0.73818 -2.1427,-1.24393 -1.25,-2.13661 0.6432,-0.64324 1.1695,-2.15704 1.1695,-3.36402 0,-2.08425 0.1976,-2.13615 3.9336,-1.03304 5.0915,1.50334 5.3731,1.86027 3.9433,4.99831 -1.2738,2.79569 -3.5311,3.24023 -7.7964,1.53536 z m -107.9922,127.59387 c 0.1143,-7.7 -0.1474,-14.82775 -0.5816,-15.83945 -0.5852,-1.36369 0.023,-2.65194 2.352,-4.98077 l 3.1413,-3.14132 0.043,7.48077 0.043,7.48077 5.7065,-6.15922 c 3.1386,-3.38758 7.1105,-6.85637 8.8265,-7.70844 4.6038,-2.28601 12.1755,-11.20156 13.5693,-15.97759 0.6668,-2.28511 3.3411,-6.62975 5.9427,-9.65475 4.6523,-5.40924 4.7356,-5.62769 5.0492,-13.23782 0.1903,-4.61891 -0.078,-7.73839 -0.6643,-7.73923 -0.5832,-8.4e-4 -0.8491,2.90056 -0.6536,7.13181 0.3054,6.61063 0.1943,7.07661 -1.5169,6.36063 -1.0155,-0.42492 -2.8589,-0.99217 -4.0964,-1.26056 -1.2375,-0.26839 -2.25,-0.69729 -2.25,-0.95311 0,-0.25582 1.6695,-2.56586 3.7099,-5.13342 l 3.7099,-4.6683 -3.3645,3 c -3.7689,3.36043 -3.2173,1.8703 1.3813,-3.73197 1.6849,-2.05259 3.5932,-3.74009 4.2408,-3.75 0.6476,-0.01 2.0624,-1.14303 3.1439,-2.51803 1.0816,-1.375 2.2393,-2.5 2.5726,-2.5 0.3334,0 0.6061,5.3526 0.6061,11.89466 0,19.87788 -0.1143,20.1044 -25.0419,49.61426 -11.6098,13.74509 -22.2271,26.11608 -23.593,27.49108 l -2.4835,2.5 0.2077,-14 z m 2.9117,13.17414 c 0,-0.42922 9.5625,-12.00197 21.25,-25.71721 11.6875,-13.71524 22.6,-27.49594 24.25,-30.62376 2.8115,-5.3296 3.039,-6.60269 3.6212,-20.26006 l 0.6211,-14.57311 -0.1384,15 c -0.119,12.89622 -0.4301,15.63113 -2.2181,19.5 -2.5053,5.42099 -47.3858,59.09871 -47.3858,56.67414 z m 3,-27.67414 c 0,-1.65 0.1155,-3 0.2566,-3 0.1411,0 1.7329,-0.42339 3.5372,-0.94086 l 3.2806,-0.94086 -3.1212,3.94086 c -1.7167,2.16747 -3.3084,3.94086 -3.5372,3.94086 -0.2288,0 -0.416,-1.35 -0.416,-3 z m 0,-6.99216 c 0,-4.11882 6.0187,-11.40953 12,-14.53609 4.7688,-2.49275 10.356,-7.33369 13.242,-11.47314 1.7159,-2.4612 1.7335,-2.4013 1.1777,4.00139 -0.8468,9.75392 -4.9406,15.187 -15.4197,20.46434 -10.2241,5.14892 -11,5.25779 -11,1.5435 z m 3.1981,-12.35829 c -0.2452,-6.52332 3.899,-13.40884 18.2966,-30.39955 7.5735,-8.9375 14.1604,-16.25 14.6376,-16.25 0.4772,0 0.8677,1.65854 0.8677,3.68564 0,2.84217 -0.9147,4.77047 -3.997,8.42591 -2.1984,2.60714 -3.7602,5.3577 -3.4706,6.11235 0.2896,0.75465 -0.6843,2.4755 -2.1642,3.8241 -2.6837,2.44562 -2.4117,1.02129 0.4389,-2.298 0.8266,-0.9625 1.2664,-1.75 0.9773,-1.75 -0.5121,0 -21.0841,23.96694 -23.2147,27.04578 -0.5883,0.85019 1.3257,-0.94981 4.2533,-4 4.7006,-4.89725 6.3751,-5.45954 2.3699,-0.79578 -0.8266,0.9625 -1.2568,1.75 -0.9561,1.75 0.3008,0 3.8063,-3.83923 7.79,-8.53163 3.9838,-4.69239 7.4263,-8.34856 7.6501,-8.12482 0.2237,0.22375 -0.3373,2.26646 -1.2467,4.53937 -1.9142,4.78404 -10.8603,13.33292 -13.5042,12.90455 -1.0542,-0.17081 -3.1569,1.31016 -5.1811,3.64926 l -3.4068,3.93673 -0.14,-3.72391 z m 11.8656,-11.14955 c 0,-0.55 2.2213,-3.475 4.9363,-6.5 2.715,-3.025 4.9363,-5.05 4.9363,-4.5 0,0.55 -2.2213,3.475 -4.9363,6.5 -2.715,3.025 -4.9363,5.05 -4.9363,4.5 z m 13.0747,-5.44935 c 0.1,-2.82172 0.5684,-5.36945 1.0412,-5.66163 0.4727,-0.29217 2.4418,-0.009 4.3756,0.6292 l 3.5161,1.16043 -3.7246,4.16067 c -2.0485,2.28838 -4.0993,4.31392 -4.5572,4.5012 -0.458,0.18729 -0.7509,-1.96815 -0.6511,-4.78987 z m 22.3229,-33.63663 c 2.1787,-2.70271 5.512,-6.72957 7.4073,-8.94859 2.8538,-3.34108 3.4682,-4.88804 3.5746,-9 0.074,-2.85321 1.066,-6.87966 2.3326,-9.46543 2.04,-4.16487 45.4007,-56.46156 54.2958,-65.48529 l 3.9284,-3.9853 0,3.80303 c 0,4.03832 -0.3362,4.47339 -34.2059,44.26013 -22.6611,26.62015 -25.7941,30.38624 -25.7941,31.00672 0,0.35508 0.7797,0.028 1.7327,-0.72685 1.6234,-1.28583 1.622,-1.19889 -0.023,1.37756 -2.9352,4.59724 -1.3494,3.13313 5.6052,-5.17519 3.6487,-4.35886 6.1297,-8.09328 5.5134,-8.29872 -0.6281,-0.20936 0.3303,-2.02603 2.1804,-4.13323 1.8356,-2.09061 3.5802,-3.30801 3.9299,-2.74227 0.3458,0.55959 4.29,-3.35163 8.765,-8.69158 4.4749,-5.33996 11.7764,-13.98401 16.2255,-19.20901 4.4492,-5.225 9.5195,-11.3 11.2675,-13.5 l 3.178,-4 -3.1873,2.93709 c -3.9755,3.66346 -4.2528,1.95794 -0.2977,-1.83129 1.842,-1.76482 3.0367,-2.3269 3.2955,-1.55054 0.2314,0.69427 1.2053,-0.0231 2.2652,-1.66871 l 1.8593,-2.88655 -2.1548,1.90499 c -1.1851,1.04774 -2.1548,1.44034 -2.1548,0.87244 0,-1.45881 2.7379,-3.55744 3.7916,-2.90625 0.4835,0.29885 9.0814,-9.14937 19.1064,-20.99604 l 18.2272,-21.5394 -0.092,-25.6143 c -0.051,-14.08786 0.2181,-25.30392 0.5974,-24.92458 0.3793,0.37934 0.5855,10.17024 0.458,21.75755 -0.1667,15.15955 0.1033,21.47136 0.9625,22.50672 0.928,1.11817 0.915,1.82891 -0.059,3.18887 -1.7861,2.4949 4.0564,-3.67937 6.772,-7.15644 1.2452,-1.59439 2.5109,-2.65195 2.8128,-2.35013 0.3018,0.30181 -2.319,3.85801 -5.824,7.90266 -5.4764,6.31957 -18.5179,21.7011 -45.6611,53.85391 -3.4823,4.125 -9.54,11.28375 -13.4616,15.90833 -3.9215,4.62458 -10.0551,11.86891 -13.6301,16.09852 -3.575,4.2296 -13.7,16.14697 -22.5,26.48303 -8.8,10.33607 -17.496,20.64174 -19.3244,22.90148 -1.8284,2.25975 -3.8534,4.29495 -4.5,4.52266 -0.6466,0.22771 0.607,-1.79729 2.7857,-4.5 z m 28.509,-33.66402 2.3464,-3.25 -2.6583,2.42431 c -1.4621,1.33338 -2.6584,2.79588 -2.6584,3.25 0,1.38853 0.5296,0.95627 2.9703,-2.42431 z m -13.9113,13.75 c 0.01,-0.55 2.0163,-3.25 4.4589,-6 2.4425,-2.75 4.4329,-4.55 4.4231,-4 -0.01,0.55 -2.0163,3.25 -4.4589,6 -2.4425,2.75 -4.4329,4.55 -4.4231,4 z m 15.941,-19.02436 c 0,-1.02231 32.2676,-38.54135 32.7403,-38.06866 0.2643,0.26424 -1.9325,3.31827 -4.8817,6.78673 -27.4609,32.29598 -27.8586,32.74261 -27.8586,31.28193 z m 82.4183,-120.93592 c 0.3679,-12.62816 0.9275,-23.20316 1.2436,-23.5 0.3161,-0.29685 0.2535,9.81028 -0.1392,22.46028 -0.3926,12.65 -0.9522,23.225 -1.2436,23.5 -0.2913,0.275 -0.2287,-9.83213 0.1392,-22.46028 z m 1.9754,17.29177 c 0.2105,-1.83232 0.433,-11.95402 0.4945,-22.49267 l 0.1118,-19.16117 9.6169,-11.33883 c 5.2892,-6.23635 10.042,-11.49809 10.5618,-11.69275 0.5888,-0.22056 0.678,8.23942 0.2366,22.45127 l -0.7084,22.80521 -9.406,11.04872 c -5.1733,6.0768 -9.8299,11.1979 -10.3479,11.38022 -0.5181,0.18232 -0.7697,-1.16768 -0.5593,-3 z m -15.6779,-47.10104 c -8.4684,-2.72225 -12.6261,-4.5218 -12.3158,-5.33057 0.2577,-0.67152 4.8083,-6.38005 10.1124,-12.68562 l 9.6439,-11.46467 14.1719,4.48083 c 7.7945,2.46445 14.3342,4.63318 14.5327,4.8194 0.8526,0.80001 -20.215,24.44314 -21.7155,24.37021 -0.905,-0.044 -7.3983,-1.92929 -14.4296,-4.18958 z m -38.2158,-12.23221 c -12.0907,-4.04296 -52.2546,-16.93524 -81,-26.00029 -11.55,-3.64237 -29.1,-9.25065 -39,-12.46284 -17.5083,-5.68082 -36.7584,-11.82096 -82,-26.15524 -12.1,-3.83375 -23.8,-7.5876 -26,-8.3419 -2.2,-0.7543 -12.775,-4.14743 -23.5,-7.5403 -10.725,-3.39286 -31.425,-9.99418 -46,-14.66958 -14.575,-4.67541 -38.875,-12.46983 -54,-17.32093 -15.125,-4.85109 -44.14998,-14.10783 -64.49998,-20.57052 -20.35,-6.46269 -37.3918,-12.09412 -37.8708,-12.5143 -0.7367,-0.64633 17.8722,-23.92234 19.1257,-23.92234 0.7248,0 20.7186,6.23643 21.1195,6.58759 0.206,0.18037 -0.8724,1.80945 -2.3964,3.62018 -2.5626,3.04486 -3.1543,3.26795 -7.8744,2.96907 -4.0531,-0.25664 -5.824,0.1616 -8.6036,2.03192 -4.761,3.20363 -5.3197,7.72224 -1.3053,10.55776 1.5429,1.08983 14.5053,5.66948 28.8053,10.17699 14.3,4.5075 35.16458,11.1406 46.36568,14.74021 17.4122,5.59563 21.1476,6.47991 25.7577,6.09761 3.8562,-0.31979 6.1018,-1.11404 7.8843,-2.78855 5.8662,-5.51098 1.851,-9.94412 -13.2159,-14.59167 -26.6227,-8.21209 -45.53608,-14.31206 -46.08858,-14.86458 -0.3303,-0.33035 0.8136,-2.01484 2.5421,-3.74332 l 3.1426,-3.14268 17.80608,5.59601 c 9.7933,3.07781 37.156,11.74685 60.806,19.26453 23.65,7.51768 56.275,17.86649 72.5,22.99736 16.225,5.13087 40.3,12.77435 53.5,16.9855 13.2,4.21115 32.325,10.29449 42.5,13.51853 10.175,3.22404 34.25,10.87172 53.5,16.99483 59.0977,18.79804 74.3121,23.62958 93.2672,29.61835 10.0469,3.17428 18.1469,6.12801 18,6.56382 -0.147,0.43582 -4.5422,5.9455 -9.7672,12.24372 -6.381,7.69169 -10.1566,11.44436 -11.5,11.43013 -1.1,-0.0117 -6.5,-1.52595 -12,-3.36507 z M 1033.4148,183.54803 c -0.2474,-0.4125 1.6766,-3.11505 4.2755,-6.00567 4.5737,-5.08711 4.8274,-5.22005 7.9118,-4.14482 6.2349,2.17349 6.244,7.62433 0.016,9.79531 -3.6004,1.2551 -11.5256,1.48577 -12.2036,0.35518 z m -9.3331,-3.02165 c -0.8622,-0.54856 -0.787,-1.25754 0.2895,-2.72981 1.2472,-1.70556 1.5889,-1.77586 2.3995,-0.49367 2.0323,3.21475 0.3907,5.18274 -2.689,3.22348 z m 5.9465,-0.88008 c -0.6701,-0.27161 -1.5077,-2.03608 -1.8613,-3.92105 -0.7724,-4.11723 -1.2219,-4.20894 -3.9375,-0.80331 -1.9948,2.50165 -2.174,2.54215 -3.847,0.86916 -1.673,-1.67299 -1.7806,-1.65591 -2.3094,0.3665 -0.4483,1.71423 -1.0605,2.00016 -3.1906,1.49016 -1.4498,-0.34709 -2.6863,-0.68028 -2.7479,-0.74041 -0.062,-0.0601 1.83,-1.04496 4.2035,-2.18851 2.3735,-1.14355 4.0774,-1.59355 3.7864,-1 -0.2909,0.59355 0.8632,-0.56405 2.5647,-2.57246 3.6963,-4.36305 6.8289,-4.24061 7.7376,0.30243 0.759,3.79518 1.6678,4.22713 3.8411,1.82564 1.6237,-1.79415 5.4787,-2.78569 5.4787,-1.40916 0,1.13842 -6.5289,8.39492 -7.5,8.33577 -0.55,-0.0335 -1.5483,-0.28315 -2.2183,-0.55476 z m -38.28168,-9.40282 c -4.675,-1.57293 -8.6822,-2.87912 -8.905,-2.90266 -0.2227,-0.0235 0.3726,-0.90197 1.3229,-1.95208 1.4058,-1.55337 2.3116,-1.74189 4.8589,-1.01132 1.7221,0.49388 3.5015,1.55996 3.9543,2.36907 0.4528,0.80911 2.3982,1.76658 4.3232,2.1277 1.925,0.36112 3.95348,1.50422 4.50798,2.54021 1.3245,2.47481 0.4821,2.37678 -10.06228,-1.17092 z m 13.99998,1.76478 c -6.37498,-3.21376 -1.6249,-9.37891 6.519,-8.46097 5.0488,0.56906 7.481,2.13501 7.481,4.81648 0,4.20979 -8.4929,6.42068 -14,3.64449 z m 8.8,-1.91023 c 1.9442,-1.94422 1.387,-3.77841 -1.4789,-4.86803 -2.1967,-0.83518 -3.0318,-0.6657 -4.639,0.94147 -1.1236,1.12358 -1.7007,2.63566 -1.3524,3.54328 0.7205,1.87766 5.7194,2.13413 7.4703,0.38328 z m -5.8706,-1.21495 c 1.5627,-1.88292 5.4231,-2.15088 4.8268,-0.33505 -0.2257,0.6875 -1.7001,1.40077 -3.2763,1.58505 -2.5168,0.29423 -2.7057,0.14196 -1.5505,-1.25 z m 23.0706,2.41495 c 0,-1.92166 1.9556,-2.71105 3.3247,-1.34201 0.757,0.75703 -1.1358,3.34201 -2.4471,3.34201 -0.4827,0 -0.8776,-0.9 -0.8776,-2 z m -11,-2.75139 c 0,-2.56904 0.3216,-2.97726 2,-2.53836 1.1,0.28766 2,0.85078 2,1.25139 0,0.40061 -0.9,1.54287 -2,2.53836 -1.9586,1.77253 -2,1.74663 -2,-1.25139 z m -25.49998,-3.24861 c -0.7869,-1.27319 1.5299,-1.27319 3.5,0 1.2195,0.78809 1.0903,0.97224 -0.691,0.98469 -1.205,0.008 -2.4691,-0.43469 -2.809,-0.98469 z m -23.25,-1.24675 c -1.7875,-0.57341 -3.25,-1.37237 -3.25,-1.77547 0,-1.70955 3.1286,-3.16233 5.5184,-2.56251 1.8853,0.47318 3.4998,-0.0807 6.2328,-2.13833 l 3.6883,-2.77694 -2.1731,3.08881 c -1.1951,1.69885 -2.8641,3.66234 -3.7087,4.36331 -0.8446,0.70097 -1.2891,1.67351 -0.9877,2.16119 0.6856,1.10926 -1.1208,0.98701 -5.32,-0.36006 z m 25.6731,-0.1081 -3.5768,-1.14515 2.5768,-2.09931 c 2.5343,-2.06464 2.6595,-2.07005 7.57688,-0.32751 2.75,0.9745 4.2676,1.80669 3.3725,1.84932 -0.8952,0.0426 -2.1878,0.7525 -2.8725,1.5775 -1.4222,1.71365 -2.1321,1.72821 -7.07688,0.14515 z m -17.6625,-0.30392 c -1.5964,-0.64511 4.6163,-8.30394 6.7394,-8.30815 1.9883,-0.004 8.7587,2.37701 9.7313,3.42226 0.4228,0.45431 -0.5813,0.48466 -2.2313,0.0674 -4.5599,-1.153 -5.7472,-1.12861 -6.1924,0.12721 -0.2242,0.6325 0.8524,1.62112 2.3924,2.19694 2.5302,0.94605 2.4099,0.99466 -1.2482,0.50445 -2.9817,-0.39955 -4.3972,-0.12209 -5.3725,1.05306 -1.3824,1.66567 -1.776,1.76225 -3.8187,0.93678 z m -20.2606,-3.58163 c -1.7874,-0.7062 -2.0724,-1.12033 -1,-1.4529 0.825,-0.25584 2.175,-0.74129 3,-1.07878 0.825,-0.33749 2.0525,-0.6443 2.7277,-0.6818 0.6752,-0.0375 2.4992,-1.59128 4.0533,-3.45285 l 2.8256,-3.38466 5.2615,1.74758 c 5.7908,1.92338 6.412,3.26737 0.7931,1.71593 -5.2061,-1.43748 -6.7808,0.82505 -1.9112,2.74605 2.6153,1.03168 2.573,1.05932 -0.8615,0.56401 -2.5146,-0.36265 -3.9945,-0.0594 -4.8724,0.99849 -1.5249,1.83739 -4.6702,1.99666 -5.3187,0.26933 -0.2932,-0.78102 -0.7934,-0.45323 -1.3333,0.87368 -0.7315,1.79775 -1.2478,1.97208 -3.3641,1.13592 z m -16.2586,-5.42154 c -4.2053,-1.74409 -5.9739,-5.57093 -3.621,-7.83476 1.9631,-1.88879 7.9367,-3.26266 10.8796,-2.50219 l 2.5,0.64603 -2.251,0.74415 c -2.9828,0.98604 -4.5844,4.18172 -3.8746,7.73088 0.3166,1.58281 0.4744,2.85464 0.3506,2.8263 -0.1237,-0.0283 -1.9164,-0.75302 -3.9836,-1.61041 z m 8.7586,0.30699 c -7.4999,-2.25229 -4.5124,-9.23677 3.8729,-9.05466 5.6189,0.12202 8.6271,1.86406 8.6271,4.99582 0,1.92559 -0.8136,2.85579 -3.4679,3.96482 -4.0031,1.67262 -3.7832,1.67033 -9.0321,0.094 z m 6.9176,-1.96115 c 2.4193,-1.76901 1.6582,-5.09908 -1.2603,-5.51426 -2.4639,-0.35052 -6.1573,2.28994 -6.1573,4.40201 0,2.43863 4.6501,3.1359 7.4176,1.11225 z m -5.1738,-0.9339 c 0.2257,-0.6875 1.7001,-1.40077 3.2764,-1.58505 2.5168,-0.29423 2.7056,-0.14196 1.5504,1.25 -1.5627,1.88292 -5.423,2.15088 -4.8268,0.33505 z m 29.3695,1.68474 c -0.8234,-2.14586 3.015,-7.43474 5.3958,-7.43474 3.0841,0 3.289,1.85701 0.5626,5.0972 -1.4144,1.68094 -2.5717,2.74162 -2.5717,2.35708 0,-0.38454 -0.6224,-0.18258 -1.3832,0.4488 -1.071,0.88887 -1.5232,0.78317 -2.0035,-0.46834 z m -17.2224,-2.38034 c 0.06,-1.67741 0.5114,-3.05087 1.0031,-3.05212 0.4918,-0.001 2.2918,-1.54997 4,-3.4416 2.6357,-2.91856 3.4586,-3.29756 5.4347,-2.50312 l 2.3286,0.93618 -2.3286,2.9478 c -1.2808,1.62129 -2.9791,2.9727 -3.774,3.00313 -0.7949,0.0304 -2.644,1.20378 -4.1091,2.60745 l -2.6638,2.55211 0.1091,-3.04983 z m 12.3591,-1.74995 c -2.4218,-0.62427 -2.1979,-1.79297 1,-5.21945 2.3025,-2.46706 3.1355,-2.79317 5.1191,-2.00397 l 2.369,0.9426 -2.455,3.18352 c -2.6463,3.43147 -3.3451,3.7902 -6.0331,3.0973 z m -75.24998,-2.33453 c -1.1,-0.49209 -9.99134,-3.43289 -19.75852,-6.53512 l -17.75853,-5.6404 1.75853,-2.30739 c 5.257,-6.89783 17.89131,-21.3628 18.70933,-21.42024 1.43398,-0.1007 41.54917,12.96363 41.54917,13.53133 0,1.51014 -19.6342,23.39076 -20.9385,23.33422 -0.8588,-0.0372 -2.46148,-0.4703 -3.56148,-0.9624 z m 55.64168,-2.4222 -3.2164,-1.08297 3.2874,-3.15402 c 2.9706,-2.85017 3.5473,-3.04114 5.9862,-1.98237 l 2.6989,1.17164 -2.7698,3.06534 c -2.5488,2.82076 -3.0265,2.97894 -5.9863,1.98238 z m 6.8759,0.50058 c -1.2406,-0.79802 -1.006,-1.45091 1.4371,-4.00097 5.0859,-5.3086 7.7301,-3.47556 2.7953,1.93786 -2.0398,2.2377 -3.1328,2.77048 -4.2324,2.06311 z"
     id="path12391"
     inkscape:connector-curvature="0" />
</svg>
