<?xml version="1.0" encoding="UTF-8" standalone="no"?>
<!-- Created with Inkscape (http://www.inkscape.org/) -->

<svg
   xmlns:dc="http://purl.org/dc/elements/1.1/"
   xmlns:cc="http://creativecommons.org/ns#"
   xmlns:rdf="http://www.w3.org/1999/02/22-rdf-syntax-ns#"
   xmlns:svg="http://www.w3.org/2000/svg"
   xmlns="http://www.w3.org/2000/svg"
   version="1.1"
   width="2170.8823"
   height="269.29135"
   id="svg5765">
  <defs
     id="defs5767">
    <clipPath
       id="clipPath4439">
      <path
         d="m 76.965,496.958 257.093,0 0,52.963 -257.093,0 0,-52.963 z"
         id="path4441" />
    </clipPath>
  </defs>
  <metadata
     id="metadata5770">
    <rdf:RDF>
      <cc:Work
         rdf:about="">
        <dc:format>image/svg+xml</dc:format>
        <dc:type
           rdf:resource="http://purl.org/dc/dcmitype/StillImage" />
        <dc:title></dc:title>
      </cc:Work>
    </rdf:RDF>
  </metadata>
  <g
     transform="translate(-421.67289,-413.08522)"
     id="layer1">
    <g
       transform="matrix(9.2625389,0,0,-9.2625389,-402.58386,5397.0757)"
       id="g4435">
      <g
         clip-path="url(#clipPath4439)"
         id="g4437">
        <g
           transform="translate(211.56441,512.57739)"
           id="g4443">
          <path
             d="m 0,0 c 0,-0.292 -0.241,-0.531 -0.534,-0.531 l -10.189,0 c -0.296,0 -0.533,0.239 -0.533,0.531 l 0,7.37 c 0,0.293 0.237,0.53 0.533,0.53 l 10.189,0 C -0.241,7.9 0,7.663 0,7.37 L 0,0 z m -0.442,10.111 -10.375,0 c -1.502,0 -2.722,-1.229 -2.722,-2.726 l 0,-7.402 c 0,-1.495 1.22,-2.723 2.722,-2.723 l 10.375,0 c 1.502,0 2.725,1.228 2.725,2.723 l 0,7.402 c 0,1.497 -1.223,2.726 -2.725,2.726"
             id="path4445"
             style="fill:#a1a2a2;fill-opacity:1;fill-rule:nonzero;stroke:none" />
        </g>
        <g
           transform="translate(92.134293,533.7625)"
           id="g4447">
          <path
             d="m 0,0 0,-9.524 -2.381,0 0,12.855 2.033,0 9.639,-9.363 0,9.363 1.904,0 0.446,0 0,-12.855 -1.86,0 L 0,0 z"
             id="path4449"
             style="fill:#332d2b;fill-opacity:1;fill-rule:nonzero;stroke:none" />
        </g>
        <g
           transform="translate(115.99471,533.7625)"
           id="g4451">
          <path
             d="m 0,0 0,-9.524 -2.38,0 0,12.855 2.031,0 9.639,-9.363 0,9.363 1.908,0 0.444,0 0,-12.855 -1.859,0 L 0,0 z"
             id="path4453"
             style="fill:#332d2b;fill-opacity:1;fill-rule:nonzero;stroke:none" />
        </g>
        <g
           transform="translate(165.44679,533.7625)"
           id="g4455">
          <path
             d="m 0,0 0,-9.524 -2.379,0 0,12.855 2.031,0 9.638,-9.363 0,9.363 1.907,0 0.445,0 0,-12.855 -1.858,0 L 0,0 z"
             id="path4457"
             style="fill:#332d2b;fill-opacity:1;fill-rule:nonzero;stroke:none" />
        </g>
        <g
           transform="translate(109.44099,537.09309)"
           id="g4459">
          <path
             d="m 0,0 0.44,0 0,-12.854 -2.379,0 L -1.939,0 0,0 z"
             id="path4461"
             style="fill:#332d2b;fill-opacity:1;fill-rule:nonzero;stroke:none" />
        </g>
        <g
           transform="translate(143.84331,537.09309)"
           id="g4463">
          <path
             d="m 0,0 0.438,0 0,-2.211 -5.74,0 0,-10.643 -2.472,0 0,10.643 -5.736,0 0,2.211 L 0,0 z"
             id="path4465"
             style="fill:#332d2b;fill-opacity:1;fill-rule:nonzero;stroke:none" />
        </g>
        <g
           transform="translate(159.09039,537.09309)"
           id="g4467">
          <path
             d="m 0,0 0.446,0 0,-2.211 -10.201,0 0,-2.885 7.891,0 0,-2.211 -7.891,0 0,-3.333 10.201,0 0,-2.214 -12.556,0 L -12.11,0 0,0 z"
             id="path4469"
             style="fill:#332d2b;fill-opacity:1;fill-rule:nonzero;stroke:none" />
        </g>
        <g
           transform="translate(190.3214,526.4534)"
           id="g4471">
          <path
             d="m 0,0 -7.31,0 0,8.429 0.068,0 7.242,0 C 2.287,8.429 3.101,6.156 3.101,4.217 3.101,2.27 2.287,0 0,0 M 3.905,8.762 C 2.976,9.988 1.598,10.64 -0.068,10.64 l -9.537,0 0,-12.855 9.537,0 c 1.666,0 3.044,0.651 3.973,1.878 0.871,1.143 1.334,2.713 1.334,4.554 0,1.831 -0.463,3.408 -1.334,4.545"
             id="path4473"
             style="fill:#332d2b;fill-opacity:1;fill-rule:nonzero;stroke:none" />
        </g>
        <g
           transform="translate(211.56441,526.98129)"
           id="g4475">
          <path
             d="m 0,0 c 0,-0.29 -0.241,-0.529 -0.534,-0.529 l -10.189,0 c -0.296,0 -0.533,0.239 -0.533,0.529 l 0,7.37 c 0,0.291 0.237,0.528 0.533,0.528 l 10.189,0 C -0.241,7.898 0,7.661 0,7.37 L 0,0 z m -0.442,10.112 -10.375,0 c -1.502,0 -2.722,-1.23 -2.722,-2.727 l 0,-7.404 c 0,-1.496 1.22,-2.724 2.722,-2.724 l 10.375,0 c 1.502,0 2.725,1.228 2.725,2.724 l 0,7.404 c 0,1.497 -1.223,2.727 -2.725,2.727"
             id="path4477"
             style="fill:#332d2b;fill-opacity:1;fill-rule:nonzero;stroke:none" />
        </g>
        <g
           transform="translate(288.4624,515.2308)"
           id="g4479">
          <path
             d="m 0,0 c 2.469,-0.974 7.679,-1.764 11.744,-1.764 4.451,0 6.298,1.528 6.298,3.445 0,1.72 -1.714,2.731 -6.63,4.533 -6.571,2.429 -11.39,4.34 -11.39,8.656 0,4.47 5.798,7.099 14.642,7.099 4.748,0 6.378,-0.3 9.395,-0.853 l 0.021,-4.241 c -2.961,0.563 -5.586,1.531 -9.664,1.531 -4.369,0 -6.23,-1.387 -6.23,-2.817 0,-2.075 2.866,-3.067 7.898,-4.86 7.002,-2.507 10.898,-4.441 10.898,-8.667 0,-4.348 -4.878,-7.487 -15.882,-7.487 -4.52,0 -7.635,0.298 -11.1,0.855 L 0,0 z"
             id="path4481"
             style="fill:#332d2b;fill-opacity:1;fill-rule:nonzero;stroke:none" />
        </g>
        <g
           transform="translate(265.03841,533.452)"
           id="g4483">
          <path
             d="m 0,0 -5.236,0 0,-19.823 5.236,0 c 8.039,0 13.11,3.437 13.11,9.871 C 13.11,-3.52 8.039,0 0,0 m 14.06,-21.67 c -2.593,-1.173 -7.491,-1.917 -11.777,-1.917 l -16.368,0 0,27.276 16.368,0 c 4.286,0 9.184,-0.754 11.779,-1.924 6.304,-2.846 8.362,-7.401 8.362,-11.717 0,-4.319 -2.039,-8.867 -8.364,-11.718"
             id="path4485"
             style="fill:#332d2b;fill-opacity:1;fill-rule:nonzero;stroke:none" />
        </g>
        <g
           transform="translate(239.4794,524.7903)"
           id="g4487">
          <path
             d="m 0,0 c 0,0 7.636,1.223 7.636,5.977 0,4.647 -8.131,6.548 -16.782,6.548 -7.808,0 -12.941,-0.954 -12.941,-0.954 l 0,-4.222 c 3.544,0.857 6.933,1.587 11.553,1.587 4.958,0 8.742,-1.479 8.742,-3.569 0,-2.52 -3.742,-3.959 -11.795,-3.959 l -3.701,0 0,-3.799 3.438,0 c 8.483,0 13.307,-1.276 13.307,-4.39 0,-2.78 -4.31,-4.469 -9.684,-4.469 -4.686,0 -8.973,0.998 -12.45,1.963 l 0,-4.554 c 1.67,-0.287 6.101,-1.177 14.354,-1.177 9.142,0 17.097,2.94 17.097,8.122 C 8.774,-2.55 3.263,0 0,0"
             id="path4489"
             style="fill:#d12228;fill-opacity:1;fill-rule:nonzero;stroke:none" />
        </g>
        <g
           transform="translate(317.66541,513.5804)"
           id="g4491">
          <path
             d="m 0,0 -0.861,0 0,0.462 2.285,0 0,-0.462 -0.872,0 0,-2.563 L 0,-2.563 0,0 z"
             id="path4493"
             style="fill:#332d2b;fill-opacity:1;fill-rule:nonzero;stroke:none" />
        </g>
        <g
           transform="translate(321.99741,512.2518)"
           id="g4495">
          <path
             d="m 0,0 c -0.017,0.391 -0.04,0.862 -0.035,1.27 l -0.015,0 C -0.148,0.901 -0.273,0.493 -0.408,0.112 l -0.445,-1.311 -0.422,0 -0.403,1.293 C -1.795,0.48 -1.903,0.893 -1.983,1.27 l -0.009,0 C -2.006,0.875 -2.024,0.395 -2.047,-0.019 l -0.067,-1.216 -0.517,0 0.203,3.026 0.727,0 0.396,-1.216 c 0.106,-0.355 0.202,-0.715 0.278,-1.052 l 0.014,0 c 0.08,0.329 0.183,0.702 0.3,1.056 l 0.416,1.212 0.719,0 0.176,-3.026 -0.539,0 L 0,0 z"
             id="path4497"
             style="fill:#332d2b;fill-opacity:1;fill-rule:nonzero;stroke:none" />
        </g>
      </g>
    </g>
  </g>
</svg>
